<mxfile host="app.diagrams.net" agent="Mozilla/5.0 (Windows NT 10.0; Win64; x64) AppleWebKit/537.36 (KHTML, like Gecko) Chrome/135.0.0.0 Safari/537.36" version="26.2.12">
  <diagram name="Trang-1" id="JjuDweHKsfbA22byAbd9">
    <mxGraphModel dx="3050" dy="1084" grid="1" gridSize="10" guides="1" tooltips="1" connect="1" arrows="1" fold="1" page="1" pageScale="1" pageWidth="827" pageHeight="1169" math="0" shadow="0">
      <root>
        <mxCell id="0" />
        <mxCell id="1" parent="0" />
        <mxCell id="F_9wnhnAagOHQo1Mvyfs-1" value="&lt;p style=&quot;margin:0px;margin-top:4px;text-align:center;&quot;&gt;&lt;i&gt;&amp;lt;&amp;lt;Interface&amp;gt;&amp;gt;&lt;/i&gt;&lt;br&gt;&lt;b&gt;inputTable&lt;/b&gt;&lt;/p&gt;&lt;hr size=&quot;1&quot; style=&quot;border-style:solid;&quot;&gt;&lt;p style=&quot;margin:0px;margin-left:4px;&quot;&gt;+ inputData(Scanner scanner) : void&lt;/p&gt;&lt;p style=&quot;margin:0px;margin-left:4px;&quot;&gt;&lt;br&gt;&lt;/p&gt;" style="verticalAlign=top;align=left;overflow=fill;html=1;whiteSpace=wrap;" vertex="1" parent="1">
          <mxGeometry x="-130" y="180" width="200" height="80" as="geometry" />
        </mxCell>
        <mxCell id="F_9wnhnAagOHQo1Mvyfs-2" value="&lt;p style=&quot;margin:0px;margin-top:4px;text-align:center;&quot;&gt;&lt;b&gt;User&lt;/b&gt;&lt;/p&gt;&lt;hr size=&quot;1&quot; style=&quot;border-style:solid;&quot;&gt;&lt;p style=&quot;margin:0px;margin-left:4px;&quot;&gt;- id : int&lt;/p&gt;&lt;p style=&quot;margin:0px;margin-left:4px;&quot;&gt;- username : String&lt;/p&gt;&lt;p style=&quot;margin:0px;margin-left:4px;&quot;&gt;- password : String&lt;/p&gt;&lt;p style=&quot;margin:0px;margin-left:4px;&quot;&gt;- email : String&lt;/p&gt;&lt;p style=&quot;margin:0px;margin-left:4px;&quot;&gt;- dob : date&lt;/p&gt;&lt;p style=&quot;margin:0px;margin-left:4px;&quot;&gt;- sex : boolean&lt;/p&gt;&lt;p style=&quot;margin:0px;margin-left:4px;&quot;&gt;- phone : String&lt;/p&gt;&lt;p style=&quot;margin:0px;margin-left:4px;&quot;&gt;- created_at : date&lt;/p&gt;&lt;hr size=&quot;1&quot; style=&quot;border-style:solid;&quot;&gt;&lt;p style=&quot;margin:0px;margin-left:4px;&quot;&gt;+ inputData(Scanner scanner) : void&lt;/p&gt;" style="verticalAlign=top;align=left;overflow=fill;html=1;whiteSpace=wrap;" vertex="1" parent="1">
          <mxGeometry x="-390" y="320" width="200" height="220" as="geometry" />
        </mxCell>
        <mxCell id="F_9wnhnAagOHQo1Mvyfs-3" value="&lt;p style=&quot;margin:0px;margin-top:4px;text-align:center;&quot;&gt;&lt;b&gt;Course&lt;/b&gt;&lt;/p&gt;&lt;hr size=&quot;1&quot; style=&quot;border-style:solid;&quot;&gt;&lt;p style=&quot;margin:0px;margin-left:4px;&quot;&gt;- id : int&lt;/p&gt;&lt;p style=&quot;margin:0px;margin-left:4px;&quot;&gt;- coursename : String&lt;/p&gt;&lt;p style=&quot;margin:0px;margin-left:4px;&quot;&gt;- duration : int&lt;/p&gt;&lt;p style=&quot;margin:0px;margin-left:4px;&quot;&gt;- instructor : String&lt;/p&gt;&lt;p style=&quot;margin:0px;margin-left:4px;&quot;&gt;- created_at : date&lt;/p&gt;&lt;hr size=&quot;1&quot; style=&quot;border-style:solid;&quot;&gt;&lt;p style=&quot;margin:0px;margin-left:4px;&quot;&gt;+ inputData(Scanner scanner) : void&lt;/p&gt;" style="verticalAlign=top;align=left;overflow=fill;html=1;whiteSpace=wrap;" vertex="1" parent="1">
          <mxGeometry x="150" y="290" width="200" height="220" as="geometry" />
        </mxCell>
        <mxCell id="F_9wnhnAagOHQo1Mvyfs-4" value="&lt;p style=&quot;margin:0px;margin-top:4px;text-align:center;&quot;&gt;&lt;b&gt;Enrollment&lt;/b&gt;&lt;/p&gt;&lt;hr size=&quot;1&quot; style=&quot;border-style:solid;&quot;&gt;&lt;p style=&quot;margin:0px;margin-left:4px;&quot;&gt;- id : int&lt;/p&gt;&lt;p style=&quot;margin:0px;margin-left:4px;&quot;&gt;- user_id : int&lt;/p&gt;&lt;p style=&quot;margin:0px;margin-left:4px;&quot;&gt;- course_id : int&lt;/p&gt;&lt;p style=&quot;margin:0px;margin-left:4px;&quot;&gt;- registered_at : date&lt;/p&gt;&lt;p style=&quot;margin:0px;margin-left:4px;&quot;&gt;- status : Status&lt;/p&gt;&lt;p style=&quot;margin:0px;margin-left:4px;&quot;&gt;- created_at : date&lt;/p&gt;&lt;hr size=&quot;1&quot; style=&quot;border-style:solid;&quot;&gt;&lt;p style=&quot;margin:0px;margin-left:4px;&quot;&gt;+ inputData(Scanner scanner) : void&lt;/p&gt;" style="verticalAlign=top;align=left;overflow=fill;html=1;whiteSpace=wrap;" vertex="1" parent="1">
          <mxGeometry x="-140" y="585" width="200" height="220" as="geometry" />
        </mxCell>
        <mxCell id="F_9wnhnAagOHQo1Mvyfs-5" value="" style="endArrow=block;dashed=1;endFill=0;endSize=12;html=1;rounded=0;entryX=0;entryY=1;entryDx=0;entryDy=0;exitX=1;exitY=0;exitDx=0;exitDy=0;" edge="1" parent="1" source="F_9wnhnAagOHQo1Mvyfs-2" target="F_9wnhnAagOHQo1Mvyfs-1">
          <mxGeometry width="160" relative="1" as="geometry">
            <mxPoint x="-430" y="620" as="sourcePoint" />
            <mxPoint x="-270" y="620" as="targetPoint" />
          </mxGeometry>
        </mxCell>
        <mxCell id="F_9wnhnAagOHQo1Mvyfs-6" value="" style="endArrow=block;dashed=1;endFill=0;endSize=12;html=1;rounded=0;entryX=0.45;entryY=1;entryDx=0;entryDy=0;entryPerimeter=0;exitX=0.5;exitY=0;exitDx=0;exitDy=0;" edge="1" parent="1" source="F_9wnhnAagOHQo1Mvyfs-4" target="F_9wnhnAagOHQo1Mvyfs-1">
          <mxGeometry width="160" relative="1" as="geometry">
            <mxPoint x="-450" y="620" as="sourcePoint" />
            <mxPoint x="-290" y="620" as="targetPoint" />
          </mxGeometry>
        </mxCell>
        <mxCell id="F_9wnhnAagOHQo1Mvyfs-7" value="" style="endArrow=block;dashed=1;endFill=0;endSize=12;html=1;rounded=0;entryX=1;entryY=1;entryDx=0;entryDy=0;exitX=0;exitY=0;exitDx=0;exitDy=0;" edge="1" parent="1" source="F_9wnhnAagOHQo1Mvyfs-3" target="F_9wnhnAagOHQo1Mvyfs-1">
          <mxGeometry width="160" relative="1" as="geometry">
            <mxPoint x="-260" y="650" as="sourcePoint" />
            <mxPoint x="-100" y="650" as="targetPoint" />
          </mxGeometry>
        </mxCell>
        <mxCell id="F_9wnhnAagOHQo1Mvyfs-16" value="&lt;p style=&quot;margin:0px;margin-top:4px;text-align:center;&quot;&gt;&lt;b&gt;Main&lt;/b&gt;&lt;/p&gt;&lt;hr size=&quot;1&quot; style=&quot;border-style:solid;&quot;&gt;&lt;div style=&quot;height:2px;&quot;&gt;&lt;/div&gt;&lt;hr size=&quot;1&quot; style=&quot;border-style:solid;&quot;&gt;&lt;div style=&quot;height:2px;&quot;&gt;&amp;nbsp;+ main(String [] args) : void&lt;/div&gt;&lt;div style=&quot;height:2px;&quot;&gt;&lt;br&gt;&lt;/div&gt;&lt;div style=&quot;height:2px;&quot;&gt;&lt;br&gt;&lt;/div&gt;&lt;div style=&quot;height:2px;&quot;&gt;&lt;br&gt;&lt;/div&gt;&lt;div style=&quot;height:2px;&quot;&gt;&lt;br&gt;&lt;/div&gt;&lt;div style=&quot;height:2px;&quot;&gt;&lt;br&gt;&lt;/div&gt;&lt;div style=&quot;height:2px;&quot;&gt;&lt;br&gt;&lt;/div&gt;&lt;div style=&quot;height:2px;&quot;&gt;&lt;br&gt;&lt;/div&gt;&lt;div style=&quot;height:2px;&quot;&gt;&amp;nbsp;+ initializedSystem() : void&lt;/div&gt;&lt;div style=&quot;height:2px;&quot;&gt;&lt;br&gt;&lt;/div&gt;&lt;div style=&quot;height:2px;&quot;&gt;&lt;br&gt;&lt;/div&gt;&lt;div style=&quot;height:2px;&quot;&gt;&lt;br&gt;&lt;/div&gt;&lt;div style=&quot;height:2px;&quot;&gt;&lt;br&gt;&lt;/div&gt;&lt;div style=&quot;height:2px;&quot;&gt;&lt;br&gt;&lt;/div&gt;&lt;div style=&quot;height:2px;&quot;&gt;&lt;br&gt;&lt;/div&gt;&lt;div style=&quot;height:2px;&quot;&gt;&lt;br&gt;&lt;/div&gt;&lt;div style=&quot;height:2px;&quot;&gt;&amp;nbsp;+ showLoginScreen() : void&lt;/div&gt;&lt;div style=&quot;height:2px;&quot;&gt;&lt;br&gt;&lt;/div&gt;&lt;div style=&quot;height:2px;&quot;&gt;&lt;br&gt;&lt;/div&gt;&lt;div style=&quot;height:2px;&quot;&gt;&lt;br&gt;&lt;/div&gt;&lt;div style=&quot;height:2px;&quot;&gt;&lt;br&gt;&lt;/div&gt;&lt;div style=&quot;height:2px;&quot;&gt;&lt;br&gt;&lt;/div&gt;&lt;div style=&quot;height:2px;&quot;&gt;&lt;br&gt;&lt;/div&gt;&lt;div style=&quot;height:2px;&quot;&gt;&lt;br&gt;&lt;/div&gt;&lt;div style=&quot;height:2px;&quot;&gt;&amp;nbsp;+ routeUserInterface(User user) : void&lt;/div&gt;" style="verticalAlign=top;align=left;overflow=fill;html=1;whiteSpace=wrap;" vertex="1" parent="1">
          <mxGeometry x="1440" y="60" width="260" height="130" as="geometry" />
        </mxCell>
        <mxCell id="F_9wnhnAagOHQo1Mvyfs-17" value="&lt;p style=&quot;margin:0px;margin-top:4px;text-align:center;&quot;&gt;&lt;b&gt;AdminUI&lt;/b&gt;&lt;/p&gt;&lt;hr size=&quot;1&quot; style=&quot;border-style:solid;&quot;&gt;&lt;div style=&quot;height:2px;&quot;&gt;&amp;nbsp;- authService :AuthService&lt;/div&gt;&lt;div style=&quot;height:2px;&quot;&gt;&lt;br&gt;&lt;/div&gt;&lt;div style=&quot;height:2px;&quot;&gt;&lt;br&gt;&lt;/div&gt;&lt;div style=&quot;height:2px;&quot;&gt;&lt;br&gt;&lt;/div&gt;&lt;div style=&quot;height:2px;&quot;&gt;&lt;br&gt;&lt;/div&gt;&lt;div style=&quot;height:2px;&quot;&gt;&lt;br&gt;&lt;/div&gt;&lt;div style=&quot;height:2px;&quot;&gt;&lt;br&gt;&lt;/div&gt;&lt;div style=&quot;height:2px;&quot;&gt;&lt;br&gt;&lt;/div&gt;&lt;div style=&quot;height:2px;&quot;&gt;&amp;nbsp;- userService : UserService&lt;/div&gt;&lt;div style=&quot;height:2px;&quot;&gt;&lt;br&gt;&lt;/div&gt;&lt;div style=&quot;height:2px;&quot;&gt;&lt;br&gt;&lt;/div&gt;&lt;div style=&quot;height:2px;&quot;&gt;&lt;br&gt;&lt;/div&gt;&lt;div style=&quot;height:2px;&quot;&gt;&lt;br&gt;&lt;/div&gt;&lt;div style=&quot;height:2px;&quot;&gt;&lt;br&gt;&lt;/div&gt;&lt;div style=&quot;height:2px;&quot;&gt;&lt;br&gt;&lt;/div&gt;&lt;div style=&quot;height:2px;&quot;&gt;&amp;nbsp;- courseService : CourseService&lt;/div&gt;&lt;div style=&quot;height:2px;&quot;&gt;&lt;br&gt;&lt;/div&gt;&lt;div style=&quot;height:2px;&quot;&gt;&lt;br&gt;&lt;/div&gt;&lt;div style=&quot;height:2px;&quot;&gt;&lt;br&gt;&lt;/div&gt;&lt;div style=&quot;height:2px;&quot;&gt;&lt;br&gt;&lt;/div&gt;&lt;div style=&quot;height:2px;&quot;&gt;&lt;br&gt;&lt;/div&gt;&lt;div style=&quot;height:2px;&quot;&gt;&lt;br&gt;&lt;/div&gt;&lt;div style=&quot;height:2px;&quot;&gt;&lt;br&gt;&lt;/div&gt;&lt;div style=&quot;height:2px;&quot;&gt;&amp;nbsp;- enrollmentService : EnrollmentService&lt;/div&gt;&lt;div style=&quot;height:2px;&quot;&gt;&lt;br&gt;&lt;/div&gt;&lt;div style=&quot;height:2px;&quot;&gt;&lt;br&gt;&lt;/div&gt;&lt;div style=&quot;height:2px;&quot;&gt;&lt;br&gt;&lt;/div&gt;&lt;div style=&quot;height:2px;&quot;&gt;&lt;br&gt;&lt;/div&gt;&lt;div style=&quot;height:2px;&quot;&gt;&lt;br&gt;&lt;/div&gt;&lt;div style=&quot;height:2px;&quot;&gt;&lt;br&gt;&lt;/div&gt;&lt;div style=&quot;height:2px;&quot;&gt;&amp;nbsp;- statisticService : StatisticService&lt;/div&gt;&lt;br&gt;&lt;hr size=&quot;1&quot; style=&quot;border-style:solid;&quot;&gt;&lt;div style=&quot;height:2px;&quot;&gt;&amp;nbsp;&lt;span style=&quot;background-color: transparent; color: light-dark(rgb(0, 0, 0), rgb(255, 255, 255));&quot;&gt;+ showMainMenu() : void&lt;/span&gt;&lt;/div&gt;&lt;div style=&quot;height:2px;&quot;&gt;&lt;span style=&quot;background-color: transparent; color: light-dark(rgb(0, 0, 0), rgb(255, 255, 255));&quot;&gt;&lt;br&gt;&lt;/span&gt;&lt;/div&gt;&lt;div style=&quot;height:2px;&quot;&gt;&lt;span style=&quot;background-color: transparent; color: light-dark(rgb(0, 0, 0), rgb(255, 255, 255));&quot;&gt;&lt;br&gt;&lt;/span&gt;&lt;/div&gt;&lt;div style=&quot;height:2px;&quot;&gt;&lt;span style=&quot;background-color: transparent; color: light-dark(rgb(0, 0, 0), rgb(255, 255, 255));&quot;&gt;&lt;br&gt;&lt;/span&gt;&lt;/div&gt;&lt;div style=&quot;height:2px;&quot;&gt;&lt;span style=&quot;background-color: transparent; color: light-dark(rgb(0, 0, 0), rgb(255, 255, 255));&quot;&gt;&lt;br&gt;&lt;/span&gt;&lt;/div&gt;&lt;div style=&quot;height:2px;&quot;&gt;&lt;span style=&quot;background-color: transparent; color: light-dark(rgb(0, 0, 0), rgb(255, 255, 255));&quot;&gt;&lt;br&gt;&lt;/span&gt;&lt;/div&gt;&lt;div style=&quot;height:2px;&quot;&gt;&amp;nbsp;+ manageCourse() : void&lt;/div&gt;&lt;div style=&quot;height:2px;&quot;&gt;&lt;br&gt;&lt;/div&gt;&lt;div style=&quot;height:2px;&quot;&gt;&lt;br&gt;&lt;/div&gt;&lt;div style=&quot;height:2px;&quot;&gt;&lt;br&gt;&lt;/div&gt;&lt;div style=&quot;height:2px;&quot;&gt;&lt;br&gt;&lt;/div&gt;&lt;div style=&quot;height:2px;&quot;&gt;&lt;br&gt;&lt;/div&gt;&lt;div style=&quot;height:2px;&quot;&gt;&lt;br&gt;&lt;/div&gt;&lt;div style=&quot;height:2px;&quot;&gt;&amp;nbsp;+ manageUser() : void&lt;/div&gt;&lt;div style=&quot;height:2px;&quot;&gt;&lt;br&gt;&lt;/div&gt;&lt;div style=&quot;height:2px;&quot;&gt;&lt;br&gt;&lt;/div&gt;&lt;div style=&quot;height:2px;&quot;&gt;&lt;br&gt;&lt;/div&gt;&lt;div style=&quot;height:2px;&quot;&gt;&lt;br&gt;&lt;/div&gt;&lt;div style=&quot;height:2px;&quot;&gt;&lt;br&gt;&lt;/div&gt;&lt;div style=&quot;height:2px;&quot;&gt;&amp;nbsp;+ manageEnrollment() : void&lt;/div&gt;&lt;div style=&quot;height:2px;&quot;&gt;&lt;br&gt;&lt;/div&gt;&lt;div style=&quot;height:2px;&quot;&gt;&lt;br&gt;&lt;/div&gt;&lt;div style=&quot;height:2px;&quot;&gt;&lt;br&gt;&lt;/div&gt;&lt;div style=&quot;height:2px;&quot;&gt;&lt;br&gt;&lt;/div&gt;&lt;div style=&quot;height:2px;&quot;&gt;&lt;br&gt;&lt;/div&gt;&lt;div style=&quot;height:2px;&quot;&gt;&amp;nbsp;+ viewStatistic () : void&lt;/div&gt;&lt;div style=&quot;height:2px;&quot;&gt;&lt;br&gt;&lt;/div&gt;&lt;div style=&quot;height:2px;&quot;&gt;&lt;br&gt;&lt;/div&gt;&lt;div style=&quot;height:2px;&quot;&gt;&lt;br&gt;&lt;/div&gt;&lt;div style=&quot;height:2px;&quot;&gt;&lt;br&gt;&lt;/div&gt;&lt;div style=&quot;height:2px;&quot;&gt;&amp;nbsp;+ logout() : void&lt;/div&gt;" style="verticalAlign=top;align=left;overflow=fill;html=1;whiteSpace=wrap;" vertex="1" parent="1">
          <mxGeometry x="1190" y="300" width="280" height="200" as="geometry" />
        </mxCell>
        <mxCell id="F_9wnhnAagOHQo1Mvyfs-19" value="&lt;p style=&quot;margin:0px;margin-top:4px;text-align:center;&quot;&gt;&lt;b&gt;UserUI&lt;/b&gt;&lt;/p&gt;&lt;hr size=&quot;1&quot; style=&quot;border-style:solid;&quot;&gt;&lt;div style=&quot;height:2px;&quot;&gt;&lt;/div&gt;&lt;div style=&quot;height:2px;&quot;&gt;&lt;div style=&quot;height: 2px;&quot;&gt;- authService :AuthService&lt;/div&gt;&lt;div style=&quot;height: 2px;&quot;&gt;&lt;br&gt;&lt;/div&gt;&lt;div style=&quot;height: 2px;&quot;&gt;&lt;br&gt;&lt;/div&gt;&lt;div style=&quot;height: 2px;&quot;&gt;&lt;br&gt;&lt;/div&gt;&lt;div style=&quot;height: 2px;&quot;&gt;&lt;br&gt;&lt;/div&gt;&lt;div style=&quot;height: 2px;&quot;&gt;&lt;br&gt;&lt;/div&gt;&lt;div style=&quot;height: 2px;&quot;&gt;&lt;br&gt;&lt;/div&gt;&lt;div style=&quot;height: 2px;&quot;&gt;&lt;br&gt;&lt;/div&gt;&lt;div style=&quot;height: 2px;&quot;&gt;&amp;nbsp;- userService : UserService&lt;/div&gt;&lt;div style=&quot;height: 2px;&quot;&gt;&lt;br&gt;&lt;/div&gt;&lt;div style=&quot;height: 2px;&quot;&gt;&lt;br&gt;&lt;/div&gt;&lt;div style=&quot;height: 2px;&quot;&gt;&lt;br&gt;&lt;/div&gt;&lt;div style=&quot;height: 2px;&quot;&gt;&lt;br&gt;&lt;/div&gt;&lt;div style=&quot;height: 2px;&quot;&gt;&lt;br&gt;&lt;/div&gt;&lt;div style=&quot;height: 2px;&quot;&gt;&lt;br&gt;&lt;/div&gt;&lt;div style=&quot;height: 2px;&quot;&gt;&amp;nbsp;- courseService : CourseService&lt;/div&gt;&lt;div style=&quot;height: 2px;&quot;&gt;&lt;br&gt;&lt;/div&gt;&lt;div style=&quot;height: 2px;&quot;&gt;&lt;br&gt;&lt;/div&gt;&lt;div style=&quot;height: 2px;&quot;&gt;&lt;br&gt;&lt;/div&gt;&lt;div style=&quot;height: 2px;&quot;&gt;&lt;br&gt;&lt;/div&gt;&lt;div style=&quot;height: 2px;&quot;&gt;&lt;br&gt;&lt;/div&gt;&lt;div style=&quot;height: 2px;&quot;&gt;&lt;br&gt;&lt;/div&gt;&lt;div style=&quot;height: 2px;&quot;&gt;&lt;br&gt;&lt;/div&gt;&lt;div style=&quot;height: 2px;&quot;&gt;&amp;nbsp;- enrollmentService : EnrollmentService&lt;/div&gt;&lt;div style=&quot;height: 2px;&quot;&gt;&lt;br&gt;&lt;/div&gt;&lt;div style=&quot;height: 2px;&quot;&gt;&lt;br&gt;&lt;/div&gt;&lt;div style=&quot;height: 2px;&quot;&gt;&lt;br&gt;&lt;/div&gt;&lt;div style=&quot;height: 2px;&quot;&gt;&lt;br&gt;&lt;/div&gt;&lt;div style=&quot;height: 2px;&quot;&gt;&lt;br&gt;&lt;/div&gt;&lt;div style=&quot;height: 2px;&quot;&gt;&lt;br&gt;&lt;/div&gt;&lt;div style=&quot;height: 2px;&quot;&gt;&amp;nbsp;&lt;/div&gt;&lt;/div&gt;&lt;div style=&quot;height:2px;&quot;&gt;&lt;br&gt;&lt;/div&gt;&lt;div style=&quot;height:2px;&quot;&gt;&lt;br&gt;&lt;/div&gt;&lt;div style=&quot;height:2px;&quot;&gt;&lt;br&gt;&lt;/div&gt;&lt;div style=&quot;height:2px;&quot;&gt;&lt;br&gt;&lt;/div&gt;&lt;div style=&quot;height:2px;&quot;&gt;&lt;br&gt;&lt;/div&gt;&lt;div style=&quot;height:2px;&quot;&gt;&lt;br&gt;&lt;/div&gt;&lt;div style=&quot;height:2px;&quot;&gt;&lt;br&gt;&lt;/div&gt;&lt;div style=&quot;height:2px;&quot;&gt;&lt;br&gt;&lt;/div&gt;&lt;div style=&quot;height:2px;&quot;&gt;&lt;br&gt;&lt;/div&gt;&lt;div style=&quot;height:2px;&quot;&gt;&lt;br&gt;&lt;/div&gt;&lt;div style=&quot;height:2px;&quot;&gt;&lt;br&gt;&lt;/div&gt;&lt;div style=&quot;height:2px;&quot;&gt;&lt;br&gt;&lt;/div&gt;&lt;div style=&quot;height:2px;&quot;&gt;&lt;br&gt;&lt;/div&gt;&lt;div style=&quot;height:2px;&quot;&gt;&lt;br&gt;&lt;/div&gt;&lt;div style=&quot;height:2px;&quot;&gt;&lt;br&gt;&lt;/div&gt;&lt;div style=&quot;height:2px;&quot;&gt;&lt;br&gt;&lt;/div&gt;&lt;div style=&quot;height:2px;&quot;&gt;&lt;br&gt;&lt;/div&gt;&lt;div style=&quot;height:2px;&quot;&gt;&lt;br&gt;&lt;/div&gt;&lt;div style=&quot;height:2px;&quot;&gt;&lt;br&gt;&lt;/div&gt;&lt;div style=&quot;height:2px;&quot;&gt;&lt;br&gt;&lt;/div&gt;&lt;div style=&quot;height:2px;&quot;&gt;&lt;br&gt;&lt;/div&gt;&lt;div style=&quot;height:2px;&quot;&gt;&lt;br&gt;&lt;/div&gt;&lt;div style=&quot;height:2px;&quot;&gt;&lt;br&gt;&lt;/div&gt;&lt;div style=&quot;height:2px;&quot;&gt;&lt;br&gt;&lt;/div&gt;&lt;div style=&quot;height:2px;&quot;&gt;&lt;br&gt;&lt;/div&gt;&lt;div style=&quot;height:2px;&quot;&gt;&lt;br&gt;&lt;/div&gt;&lt;div style=&quot;height:2px;&quot;&gt;&lt;br&gt;&lt;/div&gt;&lt;div style=&quot;height:2px;&quot;&gt;&lt;br&gt;&lt;/div&gt;&lt;div style=&quot;height:2px;&quot;&gt;&lt;br&gt;&lt;/div&gt;&lt;div style=&quot;height:2px;&quot;&gt;&lt;br&gt;&lt;/div&gt;&lt;hr size=&quot;1&quot; style=&quot;border-style:solid;&quot;&gt;&lt;div style=&quot;height:2px;&quot;&gt;&amp;nbsp;+ showMainMenu() : void&lt;/div&gt;&lt;div style=&quot;height:2px;&quot;&gt;&lt;br&gt;&lt;/div&gt;&lt;div style=&quot;height:2px;&quot;&gt;&lt;br&gt;&lt;/div&gt;&lt;div style=&quot;height:2px;&quot;&gt;&lt;br&gt;&lt;/div&gt;&lt;div style=&quot;height:2px;&quot;&gt;&lt;br&gt;&lt;/div&gt;&lt;div style=&quot;height:2px;&quot;&gt;&lt;br&gt;&lt;/div&gt;&lt;div style=&quot;height:2px;&quot;&gt;&lt;br&gt;&lt;/div&gt;&lt;div style=&quot;height:2px;&quot;&gt;&lt;br&gt;&lt;/div&gt;&lt;div style=&quot;height:2px;&quot;&gt;&amp;nbsp;+ viewAvailableCourse() : void&lt;/div&gt;&lt;div style=&quot;height:2px;&quot;&gt;&lt;br&gt;&lt;/div&gt;&lt;div style=&quot;height:2px;&quot;&gt;&lt;br&gt;&lt;/div&gt;&lt;div style=&quot;height:2px;&quot;&gt;&lt;br&gt;&lt;/div&gt;&lt;div style=&quot;height:2px;&quot;&gt;&lt;br&gt;&lt;/div&gt;&lt;div style=&quot;height:2px;&quot;&gt;&lt;br&gt;&lt;/div&gt;&lt;div style=&quot;height:2px;&quot;&gt;&lt;br&gt;&lt;/div&gt;&lt;div style=&quot;height:2px;&quot;&gt;&amp;nbsp;+ viewMyEnrollment() : void&lt;/div&gt;&lt;div style=&quot;height:2px;&quot;&gt;&lt;br&gt;&lt;/div&gt;&lt;div style=&quot;height:2px;&quot;&gt;&lt;br&gt;&lt;/div&gt;&lt;div style=&quot;height:2px;&quot;&gt;&lt;br&gt;&lt;/div&gt;&lt;div style=&quot;height:2px;&quot;&gt;&lt;br&gt;&lt;/div&gt;&lt;div style=&quot;height:2px;&quot;&gt;&lt;br&gt;&lt;/div&gt;&lt;div style=&quot;height:2px;&quot;&gt;&lt;br&gt;&lt;/div&gt;&lt;div style=&quot;height:2px;&quot;&gt;&amp;nbsp;+ enrollInCourse() : void&lt;/div&gt;&lt;div style=&quot;height:2px;&quot;&gt;&lt;br&gt;&lt;/div&gt;&lt;div style=&quot;height:2px;&quot;&gt;&lt;br&gt;&lt;/div&gt;&lt;div style=&quot;height:2px;&quot;&gt;&lt;br&gt;&lt;/div&gt;&lt;div style=&quot;height:2px;&quot;&gt;&lt;br&gt;&lt;/div&gt;&lt;div style=&quot;height:2px;&quot;&gt;&lt;br&gt;&lt;/div&gt;&lt;div style=&quot;height:2px;&quot;&gt;&lt;br&gt;&lt;/div&gt;&lt;div style=&quot;height:2px;&quot;&gt;&amp;nbsp;+ manageProfile() : void&lt;/div&gt;&lt;div style=&quot;height:2px;&quot;&gt;&lt;br&gt;&lt;/div&gt;&lt;div style=&quot;height:2px;&quot;&gt;&lt;br&gt;&lt;/div&gt;&lt;div style=&quot;height:2px;&quot;&gt;&lt;br&gt;&lt;/div&gt;&lt;div style=&quot;height:2px;&quot;&gt;&lt;br&gt;&lt;/div&gt;&lt;div style=&quot;height:2px;&quot;&gt;&lt;br&gt;&lt;/div&gt;&lt;div style=&quot;height:2px;&quot;&gt;&amp;nbsp;+ logout() : void&lt;/div&gt;" style="verticalAlign=top;align=left;overflow=fill;html=1;whiteSpace=wrap;" vertex="1" parent="1">
          <mxGeometry x="1750" y="310" width="250" height="200" as="geometry" />
        </mxCell>
        <mxCell id="F_9wnhnAagOHQo1Mvyfs-20" value="&lt;p style=&quot;margin:0px;margin-top:4px;text-align:center;&quot;&gt;&lt;i&gt;&amp;lt;&amp;lt;Interface&amp;gt;&amp;gt;&lt;/i&gt;&lt;br&gt;&lt;b&gt;AppService&lt;/b&gt;&lt;/p&gt;&lt;hr size=&quot;1&quot; style=&quot;border-style:solid;&quot;&gt;&lt;p style=&quot;margin:0px;margin-left:4px;&quot;&gt;+ getAll() : List&lt;/p&gt;&lt;p style=&quot;margin:0px;margin-left:4px;&quot;&gt;+ getById(String id) : Obj&lt;/p&gt;&lt;p style=&quot;margin:0px;margin-left:4px;&quot;&gt;+ add(obj:obj) : boolean&lt;/p&gt;&lt;p style=&quot;margin:0px;margin-left:4px;&quot;&gt;+ update(obj:obj) : boolean&lt;/p&gt;&lt;p style=&quot;margin:0px;margin-left:4px;&quot;&gt;+ delete(String id): boolean&lt;/p&gt;" style="verticalAlign=top;align=left;overflow=fill;html=1;whiteSpace=wrap;" vertex="1" parent="1">
          <mxGeometry x="930" y="585" width="190" height="140" as="geometry" />
        </mxCell>
        <mxCell id="F_9wnhnAagOHQo1Mvyfs-21" value="" style="endArrow=open;endFill=1;endSize=12;html=1;rounded=0;exitX=0;exitY=1;exitDx=0;exitDy=0;entryX=0.75;entryY=0;entryDx=0;entryDy=0;" edge="1" parent="1" source="F_9wnhnAagOHQo1Mvyfs-16" target="F_9wnhnAagOHQo1Mvyfs-17">
          <mxGeometry width="160" relative="1" as="geometry">
            <mxPoint x="1050" y="620" as="sourcePoint" />
            <mxPoint x="1210" y="620" as="targetPoint" />
          </mxGeometry>
        </mxCell>
        <mxCell id="F_9wnhnAagOHQo1Mvyfs-22" value="" style="endArrow=open;endFill=1;endSize=12;html=1;rounded=0;entryX=0;entryY=0;entryDx=0;entryDy=0;exitX=1;exitY=1;exitDx=0;exitDy=0;" edge="1" parent="1" source="F_9wnhnAagOHQo1Mvyfs-16" target="F_9wnhnAagOHQo1Mvyfs-19">
          <mxGeometry width="160" relative="1" as="geometry">
            <mxPoint x="1460" y="520" as="sourcePoint" />
            <mxPoint x="1620" y="520" as="targetPoint" />
          </mxGeometry>
        </mxCell>
        <mxCell id="F_9wnhnAagOHQo1Mvyfs-23" value="&lt;p style=&quot;margin:0px;margin-top:4px;text-align:center;&quot;&gt;&lt;i&gt;&amp;lt;&amp;lt;Interface&amp;gt;&amp;gt;&lt;/i&gt;&lt;br&gt;&lt;b&gt;CourseService&lt;/b&gt;&lt;/p&gt;&lt;hr size=&quot;1&quot; style=&quot;border-style:solid;&quot;&gt;&lt;div style=&quot;height: 2px;&quot;&gt;&lt;span style=&quot;background-color: transparent; color: light-dark(rgb(0, 0, 0), rgb(255, 255, 255));&quot;&gt;+ getAvailableCourse() : List&amp;lt;Course&amp;gt;&lt;/span&gt;&lt;/div&gt;&lt;p style=&quot;margin: 0px 0px 0px 4px;&quot;&gt;&lt;br&gt;&lt;/p&gt;&lt;p style=&quot;margin: 0px 0px 0px 4px;&quot;&gt;+ searchCourse(criteria : String) :List&amp;lt;Course&amp;gt;&lt;/p&gt;&lt;p style=&quot;margin: 0px 0px 0px 4px;&quot;&gt;+ activeCourse(courseId : String) : boolean&lt;/p&gt;&lt;p style=&quot;margin: 0px 0px 0px 4px;&quot;&gt;+ deactiveCourse(courseId : String) : boolean&lt;/p&gt;" style="verticalAlign=top;align=left;overflow=fill;html=1;whiteSpace=wrap;" vertex="1" parent="1">
          <mxGeometry x="1202.5" y="610" width="255" height="110" as="geometry" />
        </mxCell>
        <mxCell id="F_9wnhnAagOHQo1Mvyfs-24" value="Extends" style="endArrow=block;endSize=16;endFill=0;html=1;rounded=0;entryX=1;entryY=1;entryDx=0;entryDy=0;exitX=0;exitY=0;exitDx=0;exitDy=0;" edge="1" parent="1" source="F_9wnhnAagOHQo1Mvyfs-23" target="F_9wnhnAagOHQo1Mvyfs-20">
          <mxGeometry width="160" relative="1" as="geometry">
            <mxPoint x="950" y="590" as="sourcePoint" />
            <mxPoint x="1110" y="590" as="targetPoint" />
          </mxGeometry>
        </mxCell>
        <mxCell id="F_9wnhnAagOHQo1Mvyfs-25" value="" style="endArrow=open;endFill=1;endSize=12;html=1;rounded=0;entryX=0.5;entryY=0;entryDx=0;entryDy=0;exitX=0.5;exitY=1;exitDx=0;exitDy=0;" edge="1" parent="1" source="F_9wnhnAagOHQo1Mvyfs-17" target="F_9wnhnAagOHQo1Mvyfs-23">
          <mxGeometry width="160" relative="1" as="geometry">
            <mxPoint x="940" y="650" as="sourcePoint" />
            <mxPoint x="1100" y="650" as="targetPoint" />
          </mxGeometry>
        </mxCell>
        <mxCell id="F_9wnhnAagOHQo1Mvyfs-26" value="" style="endArrow=open;endFill=1;endSize=12;html=1;rounded=0;exitX=0.5;exitY=1;exitDx=0;exitDy=0;entryX=1;entryY=0;entryDx=0;entryDy=0;" edge="1" parent="1" source="F_9wnhnAagOHQo1Mvyfs-19" target="F_9wnhnAagOHQo1Mvyfs-23">
          <mxGeometry width="160" relative="1" as="geometry">
            <mxPoint x="1680" y="520" as="sourcePoint" />
            <mxPoint x="1840" y="520" as="targetPoint" />
          </mxGeometry>
        </mxCell>
        <mxCell id="F_9wnhnAagOHQo1Mvyfs-27" value="&lt;p style=&quot;margin:0px;margin-top:4px;text-align:center;&quot;&gt;&lt;b&gt;CourseServiceImp&lt;/b&gt;&lt;/p&gt;&lt;hr size=&quot;1&quot; style=&quot;border-style:solid;&quot;&gt;&lt;p style=&quot;margin:0px;margin-left:4px;&quot;&gt;- courseDAO : CourseDAO&lt;/p&gt;&lt;hr size=&quot;1&quot; style=&quot;border-style:solid;&quot;&gt;&lt;p style=&quot;margin:0px;margin-left:4px;&quot;&gt;+ getAll() : List&amp;lt;Course&amp;gt;&lt;/p&gt;&lt;p style=&quot;margin: 0px 0px 0px 4px;&quot;&gt;+ getById(String id) : Course&lt;/p&gt;&lt;p style=&quot;margin: 0px 0px 0px 4px;&quot;&gt;+ add(obj:obj) : boolean&lt;/p&gt;&lt;p style=&quot;margin: 0px 0px 0px 4px;&quot;&gt;+ update(obj:obj) : boolean&lt;/p&gt;&lt;p style=&quot;margin: 0px 0px 0px 4px;&quot;&gt;+ delete(String id): boolean&lt;/p&gt;&lt;p style=&quot;margin: 0px 0px 0px 4px;&quot;&gt;+ getAvailableCourse() : List&amp;lt;Course&amp;gt;&lt;/p&gt;&lt;p style=&quot;margin: 0px 0px 0px 4px;&quot;&gt;+ searchCourse(criteria : String) :List&amp;lt;Course&amp;gt;&lt;/p&gt;&lt;p style=&quot;margin: 0px 0px 0px 4px;&quot;&gt;+ activeCourse(courseId : String) : boolean&lt;/p&gt;&lt;p style=&quot;margin: 0px 0px 0px 4px;&quot;&gt;+ deactiveCourse(courseId : String) : boolean&amp;nbsp;&lt;/p&gt;&lt;p style=&quot;margin:0px;margin-left:4px;&quot;&gt;&lt;br&gt;&lt;/p&gt;" style="verticalAlign=top;align=left;overflow=fill;html=1;whiteSpace=wrap;" vertex="1" parent="1">
          <mxGeometry x="1200" y="780" width="260" height="200" as="geometry" />
        </mxCell>
        <mxCell id="F_9wnhnAagOHQo1Mvyfs-28" value="" style="endArrow=block;dashed=1;endFill=0;endSize=12;html=1;rounded=0;entryX=0.5;entryY=1;entryDx=0;entryDy=0;exitX=0.5;exitY=0;exitDx=0;exitDy=0;" edge="1" parent="1" source="F_9wnhnAagOHQo1Mvyfs-27" target="F_9wnhnAagOHQo1Mvyfs-23">
          <mxGeometry width="160" relative="1" as="geometry">
            <mxPoint x="860" y="660" as="sourcePoint" />
            <mxPoint x="1020" y="660" as="targetPoint" />
          </mxGeometry>
        </mxCell>
        <mxCell id="F_9wnhnAagOHQo1Mvyfs-29" value="&lt;p style=&quot;margin:0px;margin-top:4px;text-align:center;&quot;&gt;&lt;i&gt;&amp;lt;&amp;lt;Interface&amp;gt;&amp;gt;&lt;/i&gt;&lt;br&gt;&lt;b&gt;CourseDAO&lt;/b&gt;&lt;/p&gt;&lt;hr size=&quot;1&quot; style=&quot;border-style:solid;&quot;&gt;&lt;p style=&quot;margin:0px;margin-left:4px;&quot;&gt;+ findByStatus(status:String) : List&amp;lt;Course&amp;gt;&lt;/p&gt;&lt;p style=&quot;margin:0px;margin-left:4px;&quot;&gt;+ findActiveCourseWithSpace() : List&amp;lt;Course&amp;gt;&lt;/p&gt;&lt;p style=&quot;margin:0px;margin-left:4px;&quot;&gt;+ searchByName(name:String) : List&amp;lt;Course&amp;gt;&lt;/p&gt;" style="verticalAlign=top;align=left;overflow=fill;html=1;whiteSpace=wrap;" vertex="1" parent="1">
          <mxGeometry x="1202.5" y="1080" width="255" height="100" as="geometry" />
        </mxCell>
        <mxCell id="F_9wnhnAagOHQo1Mvyfs-30" value="" style="endArrow=open;endFill=1;endSize=12;html=1;rounded=0;entryX=0.5;entryY=0;entryDx=0;entryDy=0;exitX=0.5;exitY=1;exitDx=0;exitDy=0;" edge="1" parent="1" source="F_9wnhnAagOHQo1Mvyfs-27" target="F_9wnhnAagOHQo1Mvyfs-29">
          <mxGeometry width="160" relative="1" as="geometry">
            <mxPoint x="770" y="1000" as="sourcePoint" />
            <mxPoint x="930" y="1000" as="targetPoint" />
          </mxGeometry>
        </mxCell>
        <mxCell id="F_9wnhnAagOHQo1Mvyfs-31" value="&lt;p style=&quot;margin:0px;margin-top:4px;text-align:center;&quot;&gt;&lt;b&gt;CourseDAOImp&lt;/b&gt;&lt;/p&gt;&lt;hr size=&quot;1&quot; style=&quot;border-style:solid;&quot;&gt;&lt;p style=&quot;margin:0px;margin-left:4px;&quot;&gt;-&amp;nbsp;&lt;/p&gt;&lt;hr size=&quot;1&quot; style=&quot;border-style:solid;&quot;&gt;&lt;p style=&quot;margin:0px;margin-left:4px;&quot;&gt;+ findAll() : List&amp;lt;Course&amp;gt;&lt;/p&gt;&lt;p style=&quot;margin:0px;margin-left:4px;&quot;&gt;+ findById(id :String) : List&amp;lt;Course&amp;gt;&lt;/p&gt;&lt;p style=&quot;margin:0px;margin-left:4px;&quot;&gt;+ save(course :Course) : boolean&lt;/p&gt;&lt;p style=&quot;margin:0px;margin-left:4px;&quot;&gt;+ update(course:Course):boolean&lt;/p&gt;&lt;p style=&quot;margin:0px;margin-left:4px;&quot;&gt;+ delete(id : String) : boolean&lt;/p&gt;&lt;p style=&quot;margin: 0px 0px 0px 4px;&quot;&gt;+ findByStatus(status:String) : List&amp;lt;Course&amp;gt;&lt;/p&gt;&lt;p style=&quot;margin: 0px 0px 0px 4px;&quot;&gt;+ findActiveCourseWithSpace() : List&amp;lt;Course&amp;gt;&lt;/p&gt;&lt;p style=&quot;margin: 0px 0px 0px 4px;&quot;&gt;+ searchByName(name:String) : List&amp;lt;Course&amp;gt;&lt;/p&gt;&lt;p style=&quot;margin:0px;margin-left:4px;&quot;&gt;&lt;br&gt;&lt;/p&gt;" style="verticalAlign=top;align=left;overflow=fill;html=1;whiteSpace=wrap;" vertex="1" parent="1">
          <mxGeometry x="1202.5" y="1260" width="260" height="180" as="geometry" />
        </mxCell>
        <mxCell id="F_9wnhnAagOHQo1Mvyfs-32" value="&lt;p style=&quot;margin:0px;margin-top:4px;text-align:center;&quot;&gt;&lt;i&gt;&amp;lt;&amp;lt;Interface&amp;gt;&amp;gt;&lt;/i&gt;&lt;br&gt;&lt;b&gt;AppDAO&lt;/b&gt;&lt;/p&gt;&lt;hr size=&quot;1&quot; style=&quot;border-style:solid;&quot;&gt;&lt;p style=&quot;margin: 0px 0px 0px 4px;&quot;&gt;+ findAll() : List&lt;/p&gt;&lt;p style=&quot;margin: 0px 0px 0px 4px;&quot;&gt;+ findById(id :String) : Obj&lt;/p&gt;&lt;p style=&quot;margin: 0px 0px 0px 4px;&quot;&gt;+ save(course :Course) : boolean&lt;/p&gt;&lt;p style=&quot;margin: 0px 0px 0px 4px;&quot;&gt;+ update(course:Course):boolean&lt;/p&gt;&lt;p style=&quot;margin: 0px 0px 0px 4px;&quot;&gt;+ delete(id : String) : boolean&lt;/p&gt;" style="verticalAlign=top;align=left;overflow=fill;html=1;whiteSpace=wrap;" vertex="1" parent="1">
          <mxGeometry x="940" y="890" width="190" height="120" as="geometry" />
        </mxCell>
        <mxCell id="F_9wnhnAagOHQo1Mvyfs-33" value="Extends" style="endArrow=block;endSize=16;endFill=0;html=1;rounded=0;entryX=1;entryY=1;entryDx=0;entryDy=0;exitX=0;exitY=0;exitDx=0;exitDy=0;" edge="1" parent="1" source="F_9wnhnAagOHQo1Mvyfs-29" target="F_9wnhnAagOHQo1Mvyfs-32">
          <mxGeometry width="160" relative="1" as="geometry">
            <mxPoint x="840" y="1170" as="sourcePoint" />
            <mxPoint x="1000" y="1170" as="targetPoint" />
          </mxGeometry>
        </mxCell>
        <mxCell id="F_9wnhnAagOHQo1Mvyfs-34" value="" style="endArrow=block;dashed=1;endFill=0;endSize=12;html=1;rounded=0;entryX=0.5;entryY=1;entryDx=0;entryDy=0;exitX=0.5;exitY=0;exitDx=0;exitDy=0;" edge="1" parent="1" source="F_9wnhnAagOHQo1Mvyfs-31" target="F_9wnhnAagOHQo1Mvyfs-29">
          <mxGeometry width="160" relative="1" as="geometry">
            <mxPoint x="880" y="1230" as="sourcePoint" />
            <mxPoint x="1040" y="1230" as="targetPoint" />
          </mxGeometry>
        </mxCell>
        <mxCell id="F_9wnhnAagOHQo1Mvyfs-35" value="&lt;p style=&quot;margin:0px;margin-top:4px;text-align:center;&quot;&gt;&lt;i&gt;&amp;lt;&amp;lt;Interface&amp;gt;&amp;gt;&lt;/i&gt;&lt;br&gt;&lt;b&gt;StatisticService&lt;/b&gt;&lt;/p&gt;&lt;hr size=&quot;1&quot; style=&quot;border-style:solid;&quot;&gt;&lt;p style=&quot;margin:0px;margin-left:4px;&quot;&gt;+ getTotalUser() : int&lt;/p&gt;&lt;p style=&quot;margin:0px;margin-left:4px;&quot;&gt;+ getTotalCourse() : int&lt;/p&gt;&lt;p style=&quot;margin:0px;margin-left:4px;&quot;&gt;+ getTotalEnrollment() : int&lt;/p&gt;&lt;p style=&quot;margin:0px;margin-left:4px;&quot;&gt;+ getTopCourseByEnrollment(limit : int) : List&lt;/p&gt;" style="verticalAlign=top;align=left;overflow=fill;html=1;whiteSpace=wrap;" vertex="1" parent="1">
          <mxGeometry x="1645" y="540" width="250" height="120" as="geometry" />
        </mxCell>
        <mxCell id="F_9wnhnAagOHQo1Mvyfs-36" value="&lt;p style=&quot;margin:0px;margin-top:4px;text-align:center;&quot;&gt;&lt;b&gt;StatisticServiceImp&lt;/b&gt;&lt;/p&gt;&lt;hr size=&quot;1&quot; style=&quot;border-style:solid;&quot;&gt;&lt;p style=&quot;margin:0px;margin-left:4px;&quot;&gt;- courseDAO : CourseDAO&lt;/p&gt;&lt;p style=&quot;margin:0px;margin-left:4px;&quot;&gt;- userDAO: UserDAO&lt;/p&gt;&lt;p style=&quot;margin:0px;margin-left:4px;&quot;&gt;- enrollmentDAO : EnrollmentDAO&lt;/p&gt;&lt;hr size=&quot;1&quot; style=&quot;border-style:solid;&quot;&gt;&lt;p style=&quot;margin: 0px 0px 0px 4px;&quot;&gt;+ getTotalUser() : int&lt;/p&gt;&lt;p style=&quot;margin: 0px 0px 0px 4px;&quot;&gt;+ getTotalCourse() : int&lt;/p&gt;&lt;p style=&quot;margin: 0px 0px 0px 4px;&quot;&gt;+ getTotalEnrollment() : int&lt;/p&gt;&lt;p style=&quot;margin: 0px 0px 0px 4px;&quot;&gt;+ getTopCourseByEnrollment(limit : int) : List&lt;/p&gt;&lt;p style=&quot;margin:0px;margin-left:4px;&quot;&gt;&lt;br&gt;&lt;/p&gt;" style="verticalAlign=top;align=left;overflow=fill;html=1;whiteSpace=wrap;" vertex="1" parent="1">
          <mxGeometry x="1640" y="770" width="260" height="160" as="geometry" />
        </mxCell>
        <mxCell id="F_9wnhnAagOHQo1Mvyfs-37" value="" style="endArrow=block;dashed=1;endFill=0;endSize=12;html=1;rounded=0;exitX=0.5;exitY=0;exitDx=0;exitDy=0;entryX=0.5;entryY=1;entryDx=0;entryDy=0;" edge="1" parent="1" source="F_9wnhnAagOHQo1Mvyfs-36" target="F_9wnhnAagOHQo1Mvyfs-35">
          <mxGeometry width="160" relative="1" as="geometry">
            <mxPoint x="1660" y="700" as="sourcePoint" />
            <mxPoint x="1820" y="700" as="targetPoint" />
          </mxGeometry>
        </mxCell>
        <mxCell id="F_9wnhnAagOHQo1Mvyfs-38" value="" style="endArrow=open;endFill=1;endSize=12;html=1;rounded=0;exitX=1;exitY=1;exitDx=0;exitDy=0;entryX=0;entryY=0;entryDx=0;entryDy=0;" edge="1" parent="1" source="F_9wnhnAagOHQo1Mvyfs-17" target="F_9wnhnAagOHQo1Mvyfs-35">
          <mxGeometry width="160" relative="1" as="geometry">
            <mxPoint x="1620" y="470" as="sourcePoint" />
            <mxPoint x="1780" y="470" as="targetPoint" />
          </mxGeometry>
        </mxCell>
        <mxCell id="F_9wnhnAagOHQo1Mvyfs-40" value="" style="endArrow=open;endFill=1;endSize=12;html=1;rounded=0;exitX=0;exitY=1;exitDx=0;exitDy=0;entryX=1;entryY=0;entryDx=0;entryDy=0;" edge="1" parent="1" source="F_9wnhnAagOHQo1Mvyfs-36" target="F_9wnhnAagOHQo1Mvyfs-29">
          <mxGeometry width="160" relative="1" as="geometry">
            <mxPoint x="1710" y="1090" as="sourcePoint" />
            <mxPoint x="1870" y="1090" as="targetPoint" />
          </mxGeometry>
        </mxCell>
        <mxCell id="F_9wnhnAagOHQo1Mvyfs-41" value="&lt;p style=&quot;margin:0px;margin-top:4px;text-align:center;&quot;&gt;&lt;i&gt;&amp;lt;&amp;lt;Interface&amp;gt;&amp;gt;&lt;/i&gt;&lt;br&gt;&lt;b&gt;EnrollmentService&lt;/b&gt;&lt;/p&gt;&lt;hr size=&quot;1&quot; style=&quot;border-style:solid;&quot;&gt;&lt;p style=&quot;margin:0px;margin-left:4px;&quot;&gt;+ getEnrollmentByUser(userId : String) : List&amp;lt;Enrollment&amp;gt;&lt;/p&gt;&lt;p style=&quot;margin:0px;margin-left:4px;&quot;&gt;+&amp;nbsp;&lt;span style=&quot;background-color: transparent; color: light-dark(rgb(0, 0, 0), rgb(255, 255, 255));&quot;&gt;getEnrollmentByCourse(courseId : String) : List&amp;lt;Enrollment&amp;gt;&lt;/span&gt;&lt;/p&gt;&lt;p style=&quot;margin:0px;margin-left:4px;&quot;&gt;+ approveEnrollment(id:String) : boolean&lt;/p&gt;&lt;p style=&quot;margin:0px;margin-left:4px;&quot;&gt;+&amp;nbsp;&lt;span style=&quot;background-color: transparent; color: light-dark(rgb(0, 0, 0), rgb(255, 255, 255));&quot;&gt;rejectEnrollment(id:String) : boolean&lt;/span&gt;&lt;/p&gt;&lt;p style=&quot;margin:0px;margin-left:4px;&quot;&gt;&lt;span style=&quot;background-color: transparent; color: light-dark(rgb(0, 0, 0), rgb(255, 255, 255));&quot;&gt;+ cancel&lt;/span&gt;&lt;span style=&quot;background-color: transparent; color: light-dark(rgb(0, 0, 0), rgb(255, 255, 255));&quot;&gt;Enrollment(id:String) : boolean&lt;/span&gt;&lt;/p&gt;" style="verticalAlign=top;align=left;overflow=fill;html=1;whiteSpace=wrap;" vertex="1" parent="1">
          <mxGeometry x="2068" y="540" width="392" height="120" as="geometry" />
        </mxCell>
        <mxCell id="F_9wnhnAagOHQo1Mvyfs-42" value="" style="endArrow=open;endFill=1;endSize=12;html=1;rounded=0;exitX=1;exitY=1;exitDx=0;exitDy=0;entryX=0.5;entryY=0;entryDx=0;entryDy=0;" edge="1" parent="1" source="F_9wnhnAagOHQo1Mvyfs-19" target="F_9wnhnAagOHQo1Mvyfs-41">
          <mxGeometry width="160" relative="1" as="geometry">
            <mxPoint x="1980" y="370" as="sourcePoint" />
            <mxPoint x="2140" y="370" as="targetPoint" />
          </mxGeometry>
        </mxCell>
        <mxCell id="F_9wnhnAagOHQo1Mvyfs-43" value="&lt;p style=&quot;margin:0px;margin-top:4px;text-align:center;&quot;&gt;&lt;b&gt;EnrollmentServiceImp&lt;/b&gt;&lt;/p&gt;&lt;hr size=&quot;1&quot; style=&quot;border-style:solid;&quot;&gt;&lt;p style=&quot;margin:0px;margin-left:4px;&quot;&gt;- courseDAO : CourseDAO&lt;/p&gt;&lt;p style=&quot;margin:0px;margin-left:4px;&quot;&gt;- enrollmentDAO : EnrollmentDAO&lt;/p&gt;&lt;hr size=&quot;1&quot; style=&quot;border-style:solid;&quot;&gt;&lt;p style=&quot;margin: 0px 0px 0px 4px;&quot;&gt;+ getAll() : List&amp;lt;Enrollment&amp;gt;&lt;/p&gt;&lt;p style=&quot;margin: 0px 0px 0px 4px;&quot;&gt;+ getById(String id) : Enrollment&lt;/p&gt;&lt;p style=&quot;margin: 0px 0px 0px 4px;&quot;&gt;+ add(obj:obj) : boolean&lt;/p&gt;&lt;p style=&quot;margin: 0px 0px 0px 4px;&quot;&gt;+ update(obj:obj) : boolean&lt;/p&gt;&lt;p style=&quot;margin: 0px 0px 0px 4px;&quot;&gt;+ delete(String id): boolean&lt;/p&gt;&lt;p style=&quot;margin: 0px 0px 0px 4px;&quot;&gt;+ getEnrollmentByUser(userId : String) : List&amp;lt;Enrollment&amp;gt;&lt;/p&gt;&lt;p style=&quot;margin: 0px 0px 0px 4px;&quot;&gt;+&amp;nbsp;&lt;span style=&quot;background-color: transparent; color: light-dark(rgb(0, 0, 0), rgb(255, 255, 255));&quot;&gt;getEnrollmentByCourse(courseId : String) : List&amp;lt;Enrollment&amp;gt;&lt;/span&gt;&lt;/p&gt;&lt;p style=&quot;margin: 0px 0px 0px 4px;&quot;&gt;+ approveEnrollment(id:String) : boolean&lt;/p&gt;&lt;p style=&quot;margin: 0px 0px 0px 4px;&quot;&gt;+&amp;nbsp;&lt;span style=&quot;background-color: transparent; color: light-dark(rgb(0, 0, 0), rgb(255, 255, 255));&quot;&gt;rejectEnrollment(id:String) : boolean&lt;/span&gt;&lt;/p&gt;&lt;p style=&quot;margin: 0px 0px 0px 4px;&quot;&gt;&lt;span style=&quot;background-color: transparent; color: light-dark(rgb(0, 0, 0), rgb(255, 255, 255));&quot;&gt;+ cancel&lt;/span&gt;&lt;span style=&quot;background-color: transparent; color: light-dark(rgb(0, 0, 0), rgb(255, 255, 255));&quot;&gt;Enrollment(id:String) : boolean&lt;/span&gt;&lt;/p&gt;&lt;p style=&quot;margin:0px;margin-left:4px;&quot;&gt;&lt;br&gt;&lt;/p&gt;" style="verticalAlign=top;align=left;overflow=fill;html=1;whiteSpace=wrap;" vertex="1" parent="1">
          <mxGeometry x="2091" y="770" width="346" height="230" as="geometry" />
        </mxCell>
        <mxCell id="F_9wnhnAagOHQo1Mvyfs-44" value="&lt;p style=&quot;margin:0px;margin-top:4px;text-align:center;&quot;&gt;&lt;i&gt;&amp;lt;&amp;lt;Interface&amp;gt;&amp;gt;&lt;/i&gt;&lt;br&gt;&lt;b&gt;EnrollmentDAO&lt;/b&gt;&lt;/p&gt;&lt;hr size=&quot;1&quot; style=&quot;border-style:solid;&quot;&gt;&lt;p style=&quot;margin:0px;margin-left:4px;&quot;&gt;+ findByUser(userId:String) : List&amp;lt;Enrollment&amp;gt;&lt;/p&gt;&lt;p style=&quot;margin:0px;margin-left:4px;&quot;&gt;+ findByCourse(courseId : String) List&amp;lt;Enrollment&amp;gt;&lt;/p&gt;&lt;p style=&quot;margin: 0px 0px 0px 4px;&quot;&gt;+ findByStatus(status : String) List&amp;lt;Enrollment&amp;gt;&lt;/p&gt;&lt;p style=&quot;margin:0px;margin-left:4px;&quot;&gt;+ countByCourse(courseId : String) : int&lt;/p&gt;" style="verticalAlign=top;align=left;overflow=fill;html=1;whiteSpace=wrap;" vertex="1" parent="1">
          <mxGeometry x="2116.75" y="1100" width="294.5" height="110" as="geometry" />
        </mxCell>
        <mxCell id="F_9wnhnAagOHQo1Mvyfs-45" value="" style="endArrow=open;endFill=1;endSize=12;html=1;rounded=0;entryX=0.5;entryY=0;entryDx=0;entryDy=0;exitX=0.5;exitY=1;exitDx=0;exitDy=0;" edge="1" parent="1" source="F_9wnhnAagOHQo1Mvyfs-43" target="F_9wnhnAagOHQo1Mvyfs-44">
          <mxGeometry width="160" relative="1" as="geometry">
            <mxPoint x="2450" y="1050" as="sourcePoint" />
            <mxPoint x="2330" y="1070" as="targetPoint" />
          </mxGeometry>
        </mxCell>
        <mxCell id="F_9wnhnAagOHQo1Mvyfs-46" value="" style="endArrow=block;dashed=1;endFill=0;endSize=12;html=1;rounded=0;entryX=0.5;entryY=1;entryDx=0;entryDy=0;exitX=0.5;exitY=0;exitDx=0;exitDy=0;" edge="1" parent="1" source="F_9wnhnAagOHQo1Mvyfs-43" target="F_9wnhnAagOHQo1Mvyfs-41">
          <mxGeometry width="160" relative="1" as="geometry">
            <mxPoint x="2090" y="1070" as="sourcePoint" />
            <mxPoint x="2250" y="1070" as="targetPoint" />
          </mxGeometry>
        </mxCell>
        <mxCell id="F_9wnhnAagOHQo1Mvyfs-48" value="Extends" style="endArrow=block;endSize=16;endFill=0;html=1;rounded=0;exitX=0;exitY=0;exitDx=0;exitDy=0;entryX=1;entryY=0.75;entryDx=0;entryDy=0;" edge="1" parent="1" source="F_9wnhnAagOHQo1Mvyfs-44" target="F_9wnhnAagOHQo1Mvyfs-32">
          <mxGeometry width="160" relative="1" as="geometry">
            <mxPoint x="1680" y="1060" as="sourcePoint" />
            <mxPoint x="1840" y="1060" as="targetPoint" />
          </mxGeometry>
        </mxCell>
        <mxCell id="F_9wnhnAagOHQo1Mvyfs-49" value="&lt;p style=&quot;margin:0px;margin-top:4px;text-align:center;&quot;&gt;&lt;b&gt;EnrollmentDAOImp&lt;/b&gt;&lt;/p&gt;&lt;hr size=&quot;1&quot; style=&quot;border-style:solid;&quot;&gt;&lt;p style=&quot;margin:0px;margin-left:4px;&quot;&gt;-&amp;nbsp;&lt;/p&gt;&lt;hr size=&quot;1&quot; style=&quot;border-style:solid;&quot;&gt;&lt;p style=&quot;margin:0px;margin-left:4px;&quot;&gt;+ findAll() : List&amp;lt;Enrollment&amp;gt;&lt;/p&gt;&lt;p style=&quot;margin:0px;margin-left:4px;&quot;&gt;+ findById(id :String) : List&amp;lt;Enrollment&amp;gt;&lt;/p&gt;&lt;p style=&quot;margin:0px;margin-left:4px;&quot;&gt;+ save(enrollment:Enrollment) : boolean&lt;/p&gt;&lt;p style=&quot;margin:0px;margin-left:4px;&quot;&gt;+ update(enrollment:Enrollment):boolean&lt;/p&gt;&lt;p style=&quot;margin:0px;margin-left:4px;&quot;&gt;+ delete(id : String) : boolean&lt;/p&gt;&lt;p style=&quot;margin: 0px 0px 0px 4px;&quot;&gt;+ findByUser(userId:String) : List&amp;lt;Enrollment&amp;gt;&lt;/p&gt;&lt;p style=&quot;margin: 0px 0px 0px 4px;&quot;&gt;+ findByCourse(courseId : String) List&amp;lt;Enrollment&amp;gt;&lt;/p&gt;&lt;p style=&quot;margin: 0px 0px 0px 4px;&quot;&gt;+ findByStatus(status : String) List&amp;lt;Enrollment&amp;gt;&lt;/p&gt;&lt;p style=&quot;margin: 0px 0px 0px 4px;&quot;&gt;+ countByCourse(courseId : String) : int&lt;/p&gt;&lt;p style=&quot;margin:0px;margin-left:4px;&quot;&gt;&lt;br&gt;&lt;/p&gt;" style="verticalAlign=top;align=left;overflow=fill;html=1;whiteSpace=wrap;" vertex="1" parent="1">
          <mxGeometry x="2134" y="1320" width="260" height="210" as="geometry" />
        </mxCell>
        <mxCell id="F_9wnhnAagOHQo1Mvyfs-50" value="" style="endArrow=block;dashed=1;endFill=0;endSize=12;html=1;rounded=0;entryX=0.5;entryY=1;entryDx=0;entryDy=0;exitX=0.5;exitY=0;exitDx=0;exitDy=0;" edge="1" parent="1" source="F_9wnhnAagOHQo1Mvyfs-49" target="F_9wnhnAagOHQo1Mvyfs-44">
          <mxGeometry width="160" relative="1" as="geometry">
            <mxPoint x="2070" y="1300" as="sourcePoint" />
            <mxPoint x="2230" y="1300" as="targetPoint" />
          </mxGeometry>
        </mxCell>
        <mxCell id="F_9wnhnAagOHQo1Mvyfs-52" value="" style="endArrow=open;endFill=1;endSize=12;html=1;rounded=0;entryX=0.25;entryY=0;entryDx=0;entryDy=0;exitX=0.75;exitY=1;exitDx=0;exitDy=0;" edge="1" parent="1" source="F_9wnhnAagOHQo1Mvyfs-36" target="F_9wnhnAagOHQo1Mvyfs-44">
          <mxGeometry width="160" relative="1" as="geometry">
            <mxPoint x="1710" y="1120" as="sourcePoint" />
            <mxPoint x="1870" y="1120" as="targetPoint" />
          </mxGeometry>
        </mxCell>
        <mxCell id="F_9wnhnAagOHQo1Mvyfs-53" value="&lt;p style=&quot;margin:0px;margin-top:4px;text-align:center;&quot;&gt;&lt;i&gt;&amp;lt;&amp;lt;Interface&amp;gt;&amp;gt;&lt;/i&gt;&lt;br&gt;&lt;b&gt;UserService&lt;/b&gt;&lt;/p&gt;&lt;hr size=&quot;1&quot; style=&quot;border-style:solid;&quot;&gt;&lt;div style=&quot;height: 2px;&quot;&gt;&amp;nbsp;+ getUserByUsername(username:String) : User&lt;/div&gt;&lt;div style=&quot;height: 2px;&quot;&gt;&lt;br&gt;&lt;/div&gt;&lt;div style=&quot;height: 2px;&quot;&gt;&lt;br&gt;&lt;/div&gt;&lt;div style=&quot;height: 2px;&quot;&gt;&lt;br&gt;&lt;/div&gt;&lt;div style=&quot;height: 2px;&quot;&gt;&lt;br&gt;&lt;/div&gt;&lt;div style=&quot;height: 2px;&quot;&gt;&lt;br&gt;&lt;/div&gt;&lt;div style=&quot;height: 2px;&quot;&gt;&lt;br&gt;&lt;/div&gt;&lt;div style=&quot;height: 2px;&quot;&gt;&amp;nbsp;+ changePassword(userId:String,newPassword: String) :boolean&lt;/div&gt;&lt;div style=&quot;height: 2px;&quot;&gt;&lt;br&gt;&lt;/div&gt;&lt;div style=&quot;height: 2px;&quot;&gt;&lt;br&gt;&lt;/div&gt;&lt;div style=&quot;height: 2px;&quot;&gt;&lt;br&gt;&lt;/div&gt;&lt;div style=&quot;height: 2px;&quot;&gt;&lt;br&gt;&lt;/div&gt;&lt;div style=&quot;height: 2px;&quot;&gt;&lt;br&gt;&lt;/div&gt;&lt;div style=&quot;height: 2px;&quot;&gt;&amp;nbsp;+ activeUser(userId: String) :boolean&lt;/div&gt;&lt;div style=&quot;height: 2px;&quot;&gt;&lt;br&gt;&lt;/div&gt;&lt;div style=&quot;height: 2px;&quot;&gt;&lt;br&gt;&lt;/div&gt;&lt;div style=&quot;height: 2px;&quot;&gt;&lt;br&gt;&lt;/div&gt;&lt;div style=&quot;height: 2px;&quot;&gt;&lt;br&gt;&lt;/div&gt;&lt;div style=&quot;height: 2px;&quot;&gt;&amp;nbsp;+ deactiveUser(userId : String) :boolean&lt;/div&gt;" style="verticalAlign=top;align=left;overflow=fill;html=1;whiteSpace=wrap;" vertex="1" parent="1">
          <mxGeometry x="501" y="545" width="355" height="110" as="geometry" />
        </mxCell>
        <mxCell id="F_9wnhnAagOHQo1Mvyfs-54" value="&lt;p style=&quot;margin:0px;margin-top:4px;text-align:center;&quot;&gt;&lt;i&gt;&amp;lt;&amp;lt;Interface&amp;gt;&amp;gt;&lt;/i&gt;&lt;br&gt;&lt;b&gt;AuthService&lt;/b&gt;&lt;/p&gt;&lt;hr size=&quot;1&quot; style=&quot;border-style:solid;&quot;&gt;&lt;div style=&quot;height: 2px;&quot;&gt;&lt;span style=&quot;background-color: transparent; color: light-dark(rgb(0, 0, 0), rgb(255, 255, 255));&quot;&gt;+ login(username:String,password:String) : boolean&lt;/span&gt;&lt;/div&gt;&lt;div style=&quot;height: 2px;&quot;&gt;&lt;span style=&quot;background-color: transparent; color: light-dark(rgb(0, 0, 0), rgb(255, 255, 255));&quot;&gt;&lt;br&gt;&lt;/span&gt;&lt;/div&gt;&lt;div style=&quot;height: 2px;&quot;&gt;&lt;span style=&quot;background-color: transparent; color: light-dark(rgb(0, 0, 0), rgb(255, 255, 255));&quot;&gt;&lt;br&gt;&lt;/span&gt;&lt;/div&gt;&lt;div style=&quot;height: 2px;&quot;&gt;&lt;span style=&quot;background-color: transparent; color: light-dark(rgb(0, 0, 0), rgb(255, 255, 255));&quot;&gt;&lt;br&gt;&lt;/span&gt;&lt;/div&gt;&lt;div style=&quot;height: 2px;&quot;&gt;&lt;span style=&quot;background-color: transparent; color: light-dark(rgb(0, 0, 0), rgb(255, 255, 255));&quot;&gt;&lt;br&gt;&lt;/span&gt;&lt;/div&gt;&lt;div style=&quot;height: 2px;&quot;&gt;&lt;span style=&quot;background-color: transparent; color: light-dark(rgb(0, 0, 0), rgb(255, 255, 255));&quot;&gt;&lt;br&gt;&lt;/span&gt;&lt;/div&gt;&lt;div style=&quot;height: 2px;&quot;&gt;&lt;span style=&quot;background-color: transparent; color: light-dark(rgb(0, 0, 0), rgb(255, 255, 255));&quot;&gt;+ logout() : void&lt;/span&gt;&lt;/div&gt;&lt;div style=&quot;height: 2px;&quot;&gt;&lt;span style=&quot;background-color: transparent; color: light-dark(rgb(0, 0, 0), rgb(255, 255, 255));&quot;&gt;&lt;br&gt;&lt;/span&gt;&lt;/div&gt;&lt;div style=&quot;height: 2px;&quot;&gt;&lt;span style=&quot;background-color: transparent; color: light-dark(rgb(0, 0, 0), rgb(255, 255, 255));&quot;&gt;&lt;br&gt;&lt;/span&gt;&lt;/div&gt;&lt;div style=&quot;height: 2px;&quot;&gt;&lt;span style=&quot;background-color: transparent; color: light-dark(rgb(0, 0, 0), rgb(255, 255, 255));&quot;&gt;&lt;br&gt;&lt;/span&gt;&lt;/div&gt;&lt;div style=&quot;height: 2px;&quot;&gt;&lt;span style=&quot;background-color: transparent; color: light-dark(rgb(0, 0, 0), rgb(255, 255, 255));&quot;&gt;&lt;br&gt;&lt;/span&gt;&lt;/div&gt;&lt;div style=&quot;height: 2px;&quot;&gt;&lt;span style=&quot;background-color: transparent; color: light-dark(rgb(0, 0, 0), rgb(255, 255, 255));&quot;&gt;&lt;br&gt;&lt;/span&gt;&lt;/div&gt;&lt;div style=&quot;height: 2px;&quot;&gt;&lt;span style=&quot;background-color: transparent; color: light-dark(rgb(0, 0, 0), rgb(255, 255, 255));&quot;&gt;&lt;br&gt;&lt;/span&gt;&lt;/div&gt;&lt;div style=&quot;height: 2px;&quot;&gt;&lt;span style=&quot;background-color: transparent; color: light-dark(rgb(0, 0, 0), rgb(255, 255, 255));&quot;&gt;+ isAuthenticated () : boolean&lt;/span&gt;&lt;/div&gt;&lt;div style=&quot;height: 2px;&quot;&gt;&lt;span style=&quot;background-color: transparent; color: light-dark(rgb(0, 0, 0), rgb(255, 255, 255));&quot;&gt;&lt;br&gt;&lt;/span&gt;&lt;/div&gt;&lt;div style=&quot;height: 2px;&quot;&gt;&lt;span style=&quot;background-color: transparent; color: light-dark(rgb(0, 0, 0), rgb(255, 255, 255));&quot;&gt;&lt;br&gt;&lt;/span&gt;&lt;/div&gt;&lt;div style=&quot;height: 2px;&quot;&gt;&lt;span style=&quot;background-color: transparent; color: light-dark(rgb(0, 0, 0), rgb(255, 255, 255));&quot;&gt;&lt;br&gt;&lt;/span&gt;&lt;/div&gt;&lt;div style=&quot;height: 2px;&quot;&gt;&lt;span style=&quot;background-color: transparent; color: light-dark(rgb(0, 0, 0), rgb(255, 255, 255));&quot;&gt;&lt;br&gt;&lt;/span&gt;&lt;/div&gt;&lt;div style=&quot;height: 2px;&quot;&gt;&lt;span style=&quot;background-color: transparent; color: light-dark(rgb(0, 0, 0), rgb(255, 255, 255));&quot;&gt;&lt;br&gt;&lt;/span&gt;&lt;/div&gt;&lt;div style=&quot;height: 2px;&quot;&gt;&lt;span style=&quot;background-color: transparent; color: light-dark(rgb(0, 0, 0), rgb(255, 255, 255));&quot;&gt;&lt;br&gt;&lt;/span&gt;&lt;/div&gt;&lt;div style=&quot;height: 2px;&quot;&gt;&lt;span style=&quot;background-color: transparent; color: light-dark(rgb(0, 0, 0), rgb(255, 255, 255));&quot;&gt;+ getCurrentUser() : User&lt;/span&gt;&lt;/div&gt;" style="verticalAlign=top;align=left;overflow=fill;html=1;whiteSpace=wrap;" vertex="1" parent="1">
          <mxGeometry x="170" y="545" width="284" height="110" as="geometry" />
        </mxCell>
        <mxCell id="F_9wnhnAagOHQo1Mvyfs-55" value="&lt;p style=&quot;margin:0px;margin-top:4px;text-align:center;&quot;&gt;&lt;b&gt;AuthServiceImp&lt;/b&gt;&lt;/p&gt;&lt;hr size=&quot;1&quot; style=&quot;border-style:solid;&quot;&gt;&lt;p style=&quot;margin:0px;margin-left:4px;&quot;&gt;- authDAO: AuthDAO&lt;/p&gt;&lt;hr size=&quot;1&quot; style=&quot;border-style:solid;&quot;&gt;&lt;p style=&quot;margin:0px;margin-left:4px;&quot;&gt;+&amp;nbsp;&lt;span style=&quot;background-color: transparent; color: light-dark(rgb(0, 0, 0), rgb(255, 255, 255));&quot;&gt;login(username:String,password:String) : boolean&lt;/span&gt;&lt;/p&gt;&lt;p style=&quot;margin:0px;margin-left:4px;&quot;&gt;&lt;span style=&quot;background-color: transparent; color: light-dark(rgb(0, 0, 0), rgb(255, 255, 255));&quot;&gt;+ logout() : void&lt;/span&gt;&lt;/p&gt;&lt;p style=&quot;margin:0px;margin-left:4px;&quot;&gt;&lt;span style=&quot;background-color: transparent; color: light-dark(rgb(0, 0, 0), rgb(255, 255, 255));&quot;&gt;+ isAuthenticated () : boolean&lt;/span&gt;&lt;/p&gt;&lt;p style=&quot;margin:0px;margin-left:4px;&quot;&gt;&lt;span style=&quot;background-color: transparent; color: light-dark(rgb(0, 0, 0), rgb(255, 255, 255));&quot;&gt;+ getCurrentUser () : User&lt;/span&gt;&lt;/p&gt;&lt;div style=&quot;height: 2px;&quot;&gt;&lt;span style=&quot;background-color: transparent; color: light-dark(rgb(0, 0, 0), rgb(255, 255, 255));&quot;&gt;&lt;br&gt;&lt;/span&gt;&lt;/div&gt;&lt;div style=&quot;height: 2px;&quot;&gt;&lt;span style=&quot;background-color: transparent; color: light-dark(rgb(0, 0, 0), rgb(255, 255, 255));&quot;&gt;&lt;br&gt;&lt;/span&gt;&lt;/div&gt;&lt;div style=&quot;height: 2px;&quot;&gt;&lt;span style=&quot;background-color: transparent; color: light-dark(rgb(0, 0, 0), rgb(255, 255, 255));&quot;&gt;&lt;br&gt;&lt;/span&gt;&lt;/div&gt;&lt;div style=&quot;height: 2px;&quot;&gt;&lt;span style=&quot;background-color: transparent; color: light-dark(rgb(0, 0, 0), rgb(255, 255, 255));&quot;&gt;&lt;br&gt;&lt;/span&gt;&lt;/div&gt;&lt;div style=&quot;height: 2px;&quot;&gt;&lt;span style=&quot;background-color: transparent; color: light-dark(rgb(0, 0, 0), rgb(255, 255, 255));&quot;&gt;&lt;span style=&quot;white-space: pre;&quot;&gt;&#x9;&lt;/span&gt;&lt;br&gt;&lt;/span&gt;&lt;/div&gt;&lt;div style=&quot;height: 2px;&quot;&gt;&lt;br&gt;&lt;/div&gt;&lt;p style=&quot;margin:0px;margin-left:4px;&quot;&gt;&lt;br&gt;&lt;/p&gt;" style="verticalAlign=top;align=left;overflow=fill;html=1;whiteSpace=wrap;" vertex="1" parent="1">
          <mxGeometry x="168" y="750" width="286" height="120" as="geometry" />
        </mxCell>
        <mxCell id="F_9wnhnAagOHQo1Mvyfs-56" value="" style="endArrow=block;dashed=1;endFill=0;endSize=12;html=1;rounded=0;entryX=0.5;entryY=1;entryDx=0;entryDy=0;exitX=0.5;exitY=0;exitDx=0;exitDy=0;" edge="1" parent="1" source="F_9wnhnAagOHQo1Mvyfs-55" target="F_9wnhnAagOHQo1Mvyfs-54">
          <mxGeometry width="160" relative="1" as="geometry">
            <mxPoint x="260" y="710" as="sourcePoint" />
            <mxPoint x="420" y="710" as="targetPoint" />
          </mxGeometry>
        </mxCell>
        <mxCell id="F_9wnhnAagOHQo1Mvyfs-57" value="&lt;p style=&quot;margin:0px;margin-top:4px;text-align:center;&quot;&gt;&lt;b&gt;UserServiceImp&lt;/b&gt;&lt;/p&gt;&lt;hr size=&quot;1&quot; style=&quot;border-style:solid;&quot;&gt;&lt;p style=&quot;margin:0px;margin-left:4px;&quot;&gt;- userDAO : UserDAO&lt;/p&gt;&lt;hr size=&quot;1&quot; style=&quot;border-style:solid;&quot;&gt;&lt;p style=&quot;margin: 0px 0px 0px 4px;&quot;&gt;+ getAll() : List&amp;lt;User&amp;gt;&lt;/p&gt;&lt;p style=&quot;margin: 0px 0px 0px 4px;&quot;&gt;+ getById(String id) : User&lt;/p&gt;&lt;p style=&quot;margin: 0px 0px 0px 4px;&quot;&gt;+ add(obj:obj) : boolean&lt;/p&gt;&lt;p style=&quot;margin: 0px 0px 0px 4px;&quot;&gt;+ update(obj:obj) : boolean&lt;/p&gt;&lt;p style=&quot;margin: 0px 0px 0px 4px;&quot;&gt;+ delete(String id): boolean&lt;/p&gt;&lt;div style=&quot;height: 2px;&quot;&gt;&amp;nbsp;+ getUserByUsername(username:String) : User&lt;/div&gt;&lt;div style=&quot;height: 2px;&quot;&gt;&lt;br&gt;&lt;/div&gt;&lt;div style=&quot;height: 2px;&quot;&gt;&lt;br&gt;&lt;/div&gt;&lt;div style=&quot;height: 2px;&quot;&gt;&lt;br&gt;&lt;/div&gt;&lt;div style=&quot;height: 2px;&quot;&gt;&lt;br&gt;&lt;/div&gt;&lt;div style=&quot;height: 2px;&quot;&gt;&lt;br&gt;&lt;/div&gt;&lt;div style=&quot;height: 2px;&quot;&gt;&lt;br&gt;&lt;/div&gt;&lt;div style=&quot;height: 2px;&quot;&gt;&amp;nbsp;+ changePassword(userId:String,newPassword: String) :boolean&lt;/div&gt;&lt;div style=&quot;height: 2px;&quot;&gt;&lt;br&gt;&lt;/div&gt;&lt;div style=&quot;height: 2px;&quot;&gt;&lt;br&gt;&lt;/div&gt;&lt;div style=&quot;height: 2px;&quot;&gt;&lt;br&gt;&lt;/div&gt;&lt;div style=&quot;height: 2px;&quot;&gt;&lt;br&gt;&lt;/div&gt;&lt;div style=&quot;height: 2px;&quot;&gt;&lt;br&gt;&lt;/div&gt;&lt;div style=&quot;height: 2px;&quot;&gt;&amp;nbsp;+ activeUser(userId: String) :boolean&lt;/div&gt;&lt;div style=&quot;height: 2px;&quot;&gt;&lt;br&gt;&lt;/div&gt;&lt;div style=&quot;height: 2px;&quot;&gt;&lt;br&gt;&lt;/div&gt;&lt;div style=&quot;height: 2px;&quot;&gt;&lt;br&gt;&lt;/div&gt;&lt;div style=&quot;height: 2px;&quot;&gt;&lt;br&gt;&lt;/div&gt;&lt;div style=&quot;height: 2px;&quot;&gt;&lt;br&gt;&lt;/div&gt;&lt;div style=&quot;height: 2px;&quot;&gt;&amp;nbsp;+ deactiveUser(userId : String) :boolean&lt;/div&gt;&lt;div style=&quot;height: 2px;&quot;&gt;&lt;span style=&quot;background-color: transparent; color: light-dark(rgb(0, 0, 0), rgb(255, 255, 255));&quot;&gt;&lt;span style=&quot;white-space: pre;&quot;&gt;&#x9;&lt;/span&gt;&lt;br&gt;&lt;/span&gt;&lt;/div&gt;&lt;div style=&quot;height: 2px;&quot;&gt;&lt;span style=&quot;background-color: transparent; color: light-dark(rgb(0, 0, 0), rgb(255, 255, 255));&quot;&gt;&lt;br&gt;&lt;/span&gt;&lt;/div&gt;&lt;div style=&quot;height: 2px;&quot;&gt;&lt;span style=&quot;background-color: transparent; color: light-dark(rgb(0, 0, 0), rgb(255, 255, 255));&quot;&gt;&lt;br&gt;&lt;/span&gt;&lt;/div&gt;&lt;div style=&quot;height: 2px;&quot;&gt;&lt;span style=&quot;background-color: transparent; color: light-dark(rgb(0, 0, 0), rgb(255, 255, 255));&quot;&gt;&lt;br&gt;&lt;/span&gt;&lt;/div&gt;&lt;div style=&quot;height: 2px;&quot;&gt;&lt;span style=&quot;background-color: transparent; color: light-dark(rgb(0, 0, 0), rgb(255, 255, 255));&quot;&gt;&lt;span style=&quot;white-space: pre;&quot;&gt;&#x9;&lt;/span&gt;&lt;br&gt;&lt;/span&gt;&lt;/div&gt;&lt;div style=&quot;height: 2px;&quot;&gt;&lt;br&gt;&lt;/div&gt;&lt;p style=&quot;margin:0px;margin-left:4px;&quot;&gt;&lt;br&gt;&lt;/p&gt;" style="verticalAlign=top;align=left;overflow=fill;html=1;whiteSpace=wrap;" vertex="1" parent="1">
          <mxGeometry x="500" y="780" width="356" height="190" as="geometry" />
        </mxCell>
        <mxCell id="F_9wnhnAagOHQo1Mvyfs-58" value="Extends" style="endArrow=block;endSize=16;endFill=0;html=1;rounded=0;entryX=0;entryY=1;entryDx=0;entryDy=0;exitX=1;exitY=0;exitDx=0;exitDy=0;" edge="1" parent="1" source="F_9wnhnAagOHQo1Mvyfs-53" target="F_9wnhnAagOHQo1Mvyfs-20">
          <mxGeometry width="160" relative="1" as="geometry">
            <mxPoint x="620" y="430" as="sourcePoint" />
            <mxPoint x="780" y="430" as="targetPoint" />
          </mxGeometry>
        </mxCell>
        <mxCell id="F_9wnhnAagOHQo1Mvyfs-59" value="" style="endArrow=block;dashed=1;endFill=0;endSize=12;html=1;rounded=0;entryX=0.5;entryY=1;entryDx=0;entryDy=0;exitX=0.5;exitY=0;exitDx=0;exitDy=0;" edge="1" parent="1" source="F_9wnhnAagOHQo1Mvyfs-57" target="F_9wnhnAagOHQo1Mvyfs-53">
          <mxGeometry width="160" relative="1" as="geometry">
            <mxPoint x="620" y="700" as="sourcePoint" />
            <mxPoint x="780" y="700" as="targetPoint" />
          </mxGeometry>
        </mxCell>
        <mxCell id="F_9wnhnAagOHQo1Mvyfs-60" value="&lt;p style=&quot;margin:0px;margin-top:4px;text-align:center;&quot;&gt;&lt;i&gt;&amp;lt;&amp;lt;Interface&amp;gt;&amp;gt;&lt;/i&gt;&lt;br&gt;&lt;b&gt;UserDAO&lt;/b&gt;&lt;/p&gt;&lt;hr size=&quot;1&quot; style=&quot;border-style:solid;&quot;&gt;&lt;p style=&quot;margin:0px;margin-left:4px;&quot;&gt;+ findByName(username:String) : User&lt;/p&gt;&lt;p style=&quot;margin: 0px 0px 0px 4px;&quot;&gt;+ findByRole(role:String) : List&amp;lt;User&amp;gt;&lt;/p&gt;&lt;p style=&quot;margin:0px;margin-left:4px;&quot;&gt;+ findActiveUser() :List&amp;lt;User&amp;gt;&lt;/p&gt;" style="verticalAlign=top;align=left;overflow=fill;html=1;whiteSpace=wrap;" vertex="1" parent="1">
          <mxGeometry x="551" y="1110" width="255" height="100" as="geometry" />
        </mxCell>
        <mxCell id="F_9wnhnAagOHQo1Mvyfs-61" value="&lt;p style=&quot;margin:0px;margin-top:4px;text-align:center;&quot;&gt;&lt;b&gt;UserDAOImp&lt;/b&gt;&lt;/p&gt;&lt;hr size=&quot;1&quot; style=&quot;border-style:solid;&quot;&gt;&lt;p style=&quot;margin:0px;margin-left:4px;&quot;&gt;-&amp;nbsp;&lt;/p&gt;&lt;hr size=&quot;1&quot; style=&quot;border-style:solid;&quot;&gt;&lt;p style=&quot;margin:0px;margin-left:4px;&quot;&gt;+ findAll() : List&amp;lt;Course&amp;gt;&lt;/p&gt;&lt;p style=&quot;margin:0px;margin-left:4px;&quot;&gt;+ findById(id :String) : List&amp;lt;Course&amp;gt;&lt;/p&gt;&lt;p style=&quot;margin:0px;margin-left:4px;&quot;&gt;+ save(course :Course) : boolean&lt;/p&gt;&lt;p style=&quot;margin:0px;margin-left:4px;&quot;&gt;+ update(course:Course):boolean&lt;/p&gt;&lt;p style=&quot;margin:0px;margin-left:4px;&quot;&gt;+ delete(id : String) : boolean&lt;/p&gt;&lt;p style=&quot;margin: 0px 0px 0px 4px;&quot;&gt;+ findByName(username:String) : User&lt;/p&gt;&lt;p style=&quot;margin: 0px 0px 0px 4px;&quot;&gt;+ findByRole(role:String) : List&amp;lt;User&amp;gt;&lt;/p&gt;&lt;p style=&quot;margin: 0px 0px 0px 4px;&quot;&gt;+ findActiveUser() :List&amp;lt;User&amp;gt;&lt;/p&gt;" style="verticalAlign=top;align=left;overflow=fill;html=1;whiteSpace=wrap;" vertex="1" parent="1">
          <mxGeometry x="551" y="1350" width="260" height="180" as="geometry" />
        </mxCell>
        <mxCell id="F_9wnhnAagOHQo1Mvyfs-62" value="" style="endArrow=open;endFill=1;endSize=12;html=1;rounded=0;entryX=0.5;entryY=0;entryDx=0;entryDy=0;exitX=0.5;exitY=1;exitDx=0;exitDy=0;" edge="1" parent="1" source="F_9wnhnAagOHQo1Mvyfs-57" target="F_9wnhnAagOHQo1Mvyfs-60">
          <mxGeometry width="160" relative="1" as="geometry">
            <mxPoint x="350" y="1060" as="sourcePoint" />
            <mxPoint x="510" y="1060" as="targetPoint" />
          </mxGeometry>
        </mxCell>
        <mxCell id="F_9wnhnAagOHQo1Mvyfs-63" value="" style="endArrow=block;dashed=1;endFill=0;endSize=12;html=1;rounded=0;entryX=0.5;entryY=1;entryDx=0;entryDy=0;exitX=0.5;exitY=0;exitDx=0;exitDy=0;" edge="1" parent="1" source="F_9wnhnAagOHQo1Mvyfs-61" target="F_9wnhnAagOHQo1Mvyfs-60">
          <mxGeometry width="160" relative="1" as="geometry">
            <mxPoint x="550" y="1250" as="sourcePoint" />
            <mxPoint x="710" y="1250" as="targetPoint" />
          </mxGeometry>
        </mxCell>
        <mxCell id="F_9wnhnAagOHQo1Mvyfs-64" value="Extends" style="endArrow=block;endSize=16;endFill=0;html=1;rounded=0;entryX=0;entryY=1;entryDx=0;entryDy=0;exitX=1;exitY=0;exitDx=0;exitDy=0;" edge="1" parent="1" source="F_9wnhnAagOHQo1Mvyfs-60" target="F_9wnhnAagOHQo1Mvyfs-32">
          <mxGeometry width="160" relative="1" as="geometry">
            <mxPoint x="920" y="1100" as="sourcePoint" />
            <mxPoint x="1080" y="1100" as="targetPoint" />
          </mxGeometry>
        </mxCell>
        <mxCell id="F_9wnhnAagOHQo1Mvyfs-67" value="" style="endArrow=open;endFill=1;endSize=12;html=1;rounded=0;entryX=1;entryY=0.75;entryDx=0;entryDy=0;exitX=0;exitY=0.75;exitDx=0;exitDy=0;" edge="1" parent="1" source="F_9wnhnAagOHQo1Mvyfs-36" target="F_9wnhnAagOHQo1Mvyfs-60">
          <mxGeometry width="160" relative="1" as="geometry">
            <mxPoint x="900" y="1150" as="sourcePoint" />
            <mxPoint x="1060" y="1150" as="targetPoint" />
          </mxGeometry>
        </mxCell>
        <mxCell id="F_9wnhnAagOHQo1Mvyfs-68" value="" style="endArrow=open;endFill=1;endSize=12;html=1;rounded=0;exitX=0;exitY=0.5;exitDx=0;exitDy=0;entryX=1;entryY=0.25;entryDx=0;entryDy=0;" edge="1" parent="1" source="F_9wnhnAagOHQo1Mvyfs-43" target="F_9wnhnAagOHQo1Mvyfs-29">
          <mxGeometry width="160" relative="1" as="geometry">
            <mxPoint x="1660" y="1190" as="sourcePoint" />
            <mxPoint x="1820" y="1190" as="targetPoint" />
          </mxGeometry>
        </mxCell>
        <mxCell id="F_9wnhnAagOHQo1Mvyfs-69" value="" style="endArrow=open;endFill=1;endSize=12;html=1;rounded=0;entryX=0.75;entryY=0;entryDx=0;entryDy=0;exitX=0;exitY=0.5;exitDx=0;exitDy=0;" edge="1" parent="1" source="F_9wnhnAagOHQo1Mvyfs-17" target="F_9wnhnAagOHQo1Mvyfs-53">
          <mxGeometry width="160" relative="1" as="geometry">
            <mxPoint x="780" y="360" as="sourcePoint" />
            <mxPoint x="940" y="360" as="targetPoint" />
          </mxGeometry>
        </mxCell>
        <mxCell id="F_9wnhnAagOHQo1Mvyfs-70" value="" style="endArrow=open;endFill=1;endSize=12;html=1;rounded=0;entryX=0.75;entryY=0;entryDx=0;entryDy=0;exitX=0;exitY=0.25;exitDx=0;exitDy=0;" edge="1" parent="1" source="F_9wnhnAagOHQo1Mvyfs-17" target="F_9wnhnAagOHQo1Mvyfs-54">
          <mxGeometry width="160" relative="1" as="geometry">
            <mxPoint x="710" y="370" as="sourcePoint" />
            <mxPoint x="870" y="370" as="targetPoint" />
          </mxGeometry>
        </mxCell>
        <mxCell id="F_9wnhnAagOHQo1Mvyfs-71" value="" style="endArrow=open;endFill=1;endSize=12;html=1;rounded=0;entryX=0;entryY=0;entryDx=0;entryDy=0;exitX=1;exitY=0.5;exitDx=0;exitDy=0;" edge="1" parent="1" source="F_9wnhnAagOHQo1Mvyfs-17" target="F_9wnhnAagOHQo1Mvyfs-41">
          <mxGeometry width="160" relative="1" as="geometry">
            <mxPoint x="900" y="230" as="sourcePoint" />
            <mxPoint x="1060" y="230" as="targetPoint" />
          </mxGeometry>
        </mxCell>
        <mxCell id="F_9wnhnAagOHQo1Mvyfs-72" value="" style="endArrow=open;endFill=1;endSize=12;html=1;rounded=0;entryX=1;entryY=0;entryDx=0;entryDy=0;exitX=0;exitY=0.5;exitDx=0;exitDy=0;" edge="1" parent="1" source="F_9wnhnAagOHQo1Mvyfs-19" target="F_9wnhnAagOHQo1Mvyfs-53">
          <mxGeometry width="160" relative="1" as="geometry">
            <mxPoint x="850" y="250" as="sourcePoint" />
            <mxPoint x="1010" y="250" as="targetPoint" />
          </mxGeometry>
        </mxCell>
        <mxCell id="F_9wnhnAagOHQo1Mvyfs-73" value="" style="endArrow=open;endFill=1;endSize=12;html=1;rounded=0;entryX=1;entryY=0;entryDx=0;entryDy=0;exitX=0;exitY=0.25;exitDx=0;exitDy=0;" edge="1" parent="1" source="F_9wnhnAagOHQo1Mvyfs-19" target="F_9wnhnAagOHQo1Mvyfs-54">
          <mxGeometry width="160" relative="1" as="geometry">
            <mxPoint x="640" y="290" as="sourcePoint" />
            <mxPoint x="800" y="290" as="targetPoint" />
          </mxGeometry>
        </mxCell>
        <mxCell id="F_9wnhnAagOHQo1Mvyfs-74" value="" style="endArrow=open;endFill=1;endSize=12;html=1;rounded=0;entryX=0.5;entryY=0;entryDx=0;entryDy=0;exitX=0.01;exitY=0.576;exitDx=0;exitDy=0;exitPerimeter=0;" edge="1" parent="1" source="F_9wnhnAagOHQo1Mvyfs-16" target="F_9wnhnAagOHQo1Mvyfs-54">
          <mxGeometry width="160" relative="1" as="geometry">
            <mxPoint x="670" y="190" as="sourcePoint" />
            <mxPoint x="830" y="190" as="targetPoint" />
          </mxGeometry>
        </mxCell>
        <mxCell id="F_9wnhnAagOHQo1Mvyfs-76" value="&lt;p style=&quot;margin:0px;margin-top:4px;text-align:center;&quot;&gt;&lt;i&gt;&amp;lt;&amp;lt;Interface&amp;gt;&amp;gt;&lt;/i&gt;&lt;br&gt;&lt;b&gt;AuthDAO&lt;/b&gt;&lt;/p&gt;&lt;hr size=&quot;1&quot; style=&quot;border-style:solid;&quot;&gt;&lt;p style=&quot;margin:0px;margin-left:4px;&quot;&gt;+&amp;nbsp;&lt;span style=&quot;background-color: transparent; color: light-dark(rgb(0, 0, 0), rgb(255, 255, 255));&quot;&gt;findUserByCredentials(username:String, password:String) : User&lt;/span&gt;&lt;/p&gt;&lt;p style=&quot;margin:0px;margin-left:4px;&quot;&gt;+&amp;nbsp;saveLoginHistory(userId, loginTime, ipAddress) :boolean&lt;/p&gt;&lt;p style=&quot;margin:0px;margin-left:4px;&quot;&gt;+&amp;nbsp;updateLastLogin(userId, timestamp) : boolean&lt;/p&gt;" style="verticalAlign=top;align=left;overflow=fill;html=1;whiteSpace=wrap;" vertex="1" parent="1">
          <mxGeometry x="120" y="1050" width="380" height="100" as="geometry" />
        </mxCell>
        <mxCell id="F_9wnhnAagOHQo1Mvyfs-77" value="Extends" style="endArrow=block;endSize=16;endFill=0;html=1;rounded=0;entryX=0;entryY=0.5;entryDx=0;entryDy=0;exitX=1;exitY=0.25;exitDx=0;exitDy=0;" edge="1" parent="1" source="F_9wnhnAagOHQo1Mvyfs-76" target="F_9wnhnAagOHQo1Mvyfs-32">
          <mxGeometry width="160" relative="1" as="geometry">
            <mxPoint x="90" y="1280" as="sourcePoint" />
            <mxPoint x="920" y="980" as="targetPoint" />
          </mxGeometry>
        </mxCell>
        <mxCell id="F_9wnhnAagOHQo1Mvyfs-78" value="" style="endArrow=open;endFill=1;endSize=12;html=1;rounded=0;exitX=0.5;exitY=1;exitDx=0;exitDy=0;entryX=0.5;entryY=0;entryDx=0;entryDy=0;" edge="1" parent="1" source="F_9wnhnAagOHQo1Mvyfs-55" target="F_9wnhnAagOHQo1Mvyfs-76">
          <mxGeometry width="160" relative="1" as="geometry">
            <mxPoint x="-10" y="950" as="sourcePoint" />
            <mxPoint x="150" y="950" as="targetPoint" />
          </mxGeometry>
        </mxCell>
        <mxCell id="F_9wnhnAagOHQo1Mvyfs-79" value="&lt;p style=&quot;margin:0px;margin-top:4px;text-align:center;&quot;&gt;&lt;b&gt;AuthDAOImp&lt;/b&gt;&lt;/p&gt;&lt;hr size=&quot;1&quot; style=&quot;border-style:solid;&quot;&gt;&lt;p style=&quot;margin:0px;margin-left:4px;&quot;&gt;-&amp;nbsp;&lt;/p&gt;&lt;hr size=&quot;1&quot; style=&quot;border-style:solid;&quot;&gt;&lt;p style=&quot;margin:0px;margin-left:4px;&quot;&gt;+ findAll() : List&lt;/p&gt;&lt;p style=&quot;margin:0px;margin-left:4px;&quot;&gt;+ findById(id :String) : Obj&lt;/p&gt;&lt;p style=&quot;margin:0px;margin-left:4px;&quot;&gt;+ save(course :Course) : boolean&lt;/p&gt;&lt;p style=&quot;margin:0px;margin-left:4px;&quot;&gt;+ update(course:Course):boolean&lt;/p&gt;&lt;p style=&quot;margin:0px;margin-left:4px;&quot;&gt;+ delete(id : String) : boolean&lt;/p&gt;&lt;p style=&quot;margin: 0px 0px 0px 4px;&quot;&gt;+&amp;nbsp;&lt;span style=&quot;background-color: transparent; color: light-dark(rgb(0, 0, 0), rgb(255, 255, 255));&quot;&gt;findUserByCredentials(username:String, password:String) : User&lt;/span&gt;&lt;/p&gt;&lt;p style=&quot;margin: 0px 0px 0px 4px;&quot;&gt;+&amp;nbsp;saveLoginHistory(userId, loginTime, ipAddress) :boolean&lt;/p&gt;&lt;p style=&quot;margin: 0px 0px 0px 4px;&quot;&gt;+&amp;nbsp;updateLastLogin(userId, timestamp) : boolean&lt;/p&gt;" style="verticalAlign=top;align=left;overflow=fill;html=1;whiteSpace=wrap;" vertex="1" parent="1">
          <mxGeometry x="125" y="1270" width="370" height="210" as="geometry" />
        </mxCell>
        <mxCell id="F_9wnhnAagOHQo1Mvyfs-80" value="" style="endArrow=block;dashed=1;endFill=0;endSize=12;html=1;rounded=0;entryX=0.5;entryY=1;entryDx=0;entryDy=0;exitX=0.5;exitY=0;exitDx=0;exitDy=0;" edge="1" parent="1" source="F_9wnhnAagOHQo1Mvyfs-79" target="F_9wnhnAagOHQo1Mvyfs-76">
          <mxGeometry width="160" relative="1" as="geometry">
            <mxPoint x="260" y="1220" as="sourcePoint" />
            <mxPoint x="420" y="1220" as="targetPoint" />
          </mxGeometry>
        </mxCell>
      </root>
    </mxGraphModel>
  </diagram>
</mxfile>
